<?xml version="1.0" encoding="utf-8"?>
<!-- Generator: Adobe Illustrator 26.3.1, SVG Export Plug-In . SVG Version: 6.00 Build 0)  -->
<svg version="1.1" xmlns="http://www.w3.org/2000/svg" xmlns:xlink="http://www.w3.org/1999/xlink" x="0px" y="0px"
	 viewBox="0 0 132.85 144.55" style="enable-background:new 0 0 132.85 144.55;" xml:space="preserve">
<style type="text/css">
	.st0{fill:#F5F5F5;}
	.st1{fill:#EBEBEB;}
	.st2{fill:#E0E0E0;}
	.st3{display:none;}
	.st4{display:inline;}
	.st5{fill:#263238;}
	.st6{fill:#455A64;}
	.st7{opacity:0.3;}
	.st8{fill:#FF725E;}
	.st9{fill:#FFFFFF;}
	.st10{fill:#FAFAFA;stroke:#000000;stroke-width:0.25;stroke-miterlimit:10;}
	.st11{display:inline;fill:#263238;}
	.st12{fill:#FFBE9D;}
	.st13{fill:#EB996E;}
</style>
<g id="Background_Complete">
	<g>
		<g>
			<g>
				<g>
					<path class="st0" d="M114.65,33.84c21.17,25.65,17.49,63.66-8.22,84.88c-25.71,21.22-63.72,17.63-84.9-8.02
						C0.36,85.05,4.04,47.05,29.75,25.82C55.46,4.6,93.47,8.19,114.65,33.84z"/>
				</g>
			</g>
			<g>
				<g>
					<path class="st1" d="M103.57,42.99c16.14,19.55,13.33,48.51-6.26,64.68c-19.59,16.17-48.56,13.44-64.69-6.11
						c-16.14-19.55-13.33-48.51,6.26-64.68C58.47,20.7,87.43,23.44,103.57,42.99z"/>
				</g>
			</g>
			<g>
				<g>
					<g>
						<path class="st2" d="M102.64,41.88c-0.21,0.19-1.65-1.25-4.46-3.49c-2.81-2.22-7.11-5.24-13.07-7.5
							c-2.97-1.12-6.33-2.05-10.02-2.57c-3.68-0.49-7.68-0.61-11.82-0.09c-2.07,0.25-4.17,0.63-6.27,1.22
							c-2.1,0.57-4.22,1.27-6.28,2.2c-2.07,0.92-4.12,1.96-6.09,3.23c-1.97,1.26-3.87,2.68-5.69,4.25c-1.79,1.6-3.44,3.31-4.95,5.1
							c-1.51,1.79-2.81,3.7-3.98,5.63c-1.18,1.93-2.15,3.94-2.98,5.95c-0.85,2.01-1.49,4.05-2.01,6.07
							c-1.04,4.04-1.43,8.02-1.41,11.73c0.05,3.72,0.54,7.18,1.27,10.26c1.48,6.19,3.93,10.84,5.77,13.91
							c1.87,3.08,3.11,4.68,2.9,4.87c-0.15,0.14-1.75-1.16-4.03-4.09c-2.25-2.92-5.16-7.59-7.04-14.04
							c-0.93-3.22-1.6-6.86-1.78-10.82c-0.15-3.95,0.15-8.22,1.18-12.58c0.51-2.18,1.16-4.38,2.04-6.56
							c0.87-2.18,1.88-4.36,3.13-6.45c1.24-2.1,2.64-4.17,4.25-6.11c1.61-1.94,3.39-3.79,5.32-5.51c1.95-1.7,4.01-3.23,6.14-4.57
							c2.13-1.35,4.36-2.47,6.6-3.44c2.24-0.97,4.53-1.7,6.8-2.28c2.27-0.59,4.54-0.96,6.76-1.19c4.45-0.46,8.72-0.22,12.63,0.43
							c3.9,0.68,7.43,1.81,10.51,3.15c6.16,2.69,10.42,6.17,13.03,8.78C101.71,40,102.8,41.75,102.64,41.88z"/>
					</g>
				</g>
			</g>
		</g>
		<g>
			<g>
				<g>
					<g>
						<path class="st2" d="M89.57,90.12l5.19,6.11l-5.45,4.63l-5.05-5.94c-5.68,4.26-12.29,6.97-17.28,7.18l-2.66-9.2
							c4.44-0.3,9.62-2.16,13.87-5.12l-7.74-9.1c-7.3,3.67-15.78,7.4-22.4-0.4c-4.91-5.78-4.93-14.31,2.85-22.61l-5.14-6.05
							l5.45-4.63l5.05,5.94c4.37-3.15,9.27-5.44,13.89-6.08l2.98,9.02c-4.12,0.78-7.75,2.27-10.75,4.25l7.88,9.27
							c7.25-3.73,15.62-7.36,22.15,0.32C97.22,73.38,97.25,81.81,89.57,90.12z M63.64,70.66l-6.58-7.74
							c-2.33,3.11-2.13,5.66-0.6,7.46C58.08,72.29,60.59,71.94,63.64,70.66z M84.18,75.83c-1.62-1.91-4.08-1.6-7.12-0.43l6.39,7.52
							C85.67,80.01,85.67,77.57,84.18,75.83z"/>
					</g>
				</g>
			</g>
		</g>
	</g>
</g>
<g id="Background_Simple" class="st3">
</g>
<g id="Floor" class="st3">
	<g class="st4">
		<g>
			<path class="st5" d="M29.9,118.87c0,0.14-101.79,0.26-227.33,0.26c-125.58,0-227.35-0.12-227.35-0.26
				c0-0.14,101.77-0.26,227.35-0.26C-71.89,118.61,29.9,118.73,29.9,118.87z"/>
		</g>
	</g>
</g>
<g id="Bags" class="st3">
	<g class="st4">
		<g>
			<rect x="-65.17" y="16.02" class="st6" width="90.11" height="102.85"/>
		</g>
		<g class="st7">
			<rect x="11.14" y="16.02" width="13.79" height="102.85"/>
		</g>
		<g>
			<g>
				<path class="st5" d="M3.43,16.91c0.02,0.01-0.11,0.24-0.37,0.67C2.81,18,2.43,18.64,1.92,19.44C0.86,21-0.7,23.27-2.99,25.79
					c-2.28,2.5-5.3,5.27-9.16,7.6c-3.86,2.27-8.68,4.06-13.93,4.08c-5.25,0.01-10.08-1.75-13.95-4.01
					c-3.87-2.31-6.89-5.08-9.18-7.57c-2.29-2.51-3.86-4.78-4.92-6.34c-0.51-0.8-0.89-1.43-1.15-1.86c-0.26-0.43-0.38-0.66-0.37-0.67
					c0.02-0.01,0.17,0.2,0.46,0.61c0.31,0.45,0.72,1.05,1.23,1.8c1.11,1.52,2.72,3.74,5.03,6.2c2.31,2.45,5.32,5.15,9.16,7.41
					c3.83,2.21,8.57,3.92,13.71,3.91c5.14-0.01,9.86-1.75,13.69-3.97c3.82-2.27,6.83-4.98,9.13-7.44c2.3-2.47,3.9-4.69,5.01-6.22
					c0.51-0.75,0.91-1.35,1.22-1.8C3.26,17.11,3.42,16.9,3.43,16.91z"/>
			</g>
		</g>
	</g>
	<g class="st4">
		<g>
			<g>
				<polygon class="st8" points="3.89,118.87 -74.5,118.47 -65.3,54.24 -5.8,54.24 				"/>
			</g>
			<g>
				<polygon class="st8" points="-5.8,54.24 2.11,54.24 17.05,118.87 2.11,118.87 				"/>
			</g>
			<g class="st7">
				<polygon points="-5.8,54.24 2.11,54.24 17.05,118.87 2.11,118.87 				"/>
			</g>
		</g>
		<g>
			<g>
				<path class="st5" d="M-1.77,54.24c0.14-0.03,2.8,14.39,5.94,32.19c3.14,17.81,5.57,32.26,5.43,32.28
					c-0.14,0.03-2.8-14.39-5.94-32.19C0.52,68.72-1.91,54.26-1.77,54.24z"/>
			</g>
		</g>
	</g>
</g>
<g id="Speech_Bubble">
</g>
<g id="Receipt">
</g>
<g id="Character">
</g>
</svg>
