<?xml version="1.0" encoding="utf-8"?>
<!-- Generator: Adobe Illustrator 26.3.1, SVG Export Plug-In . SVG Version: 6.00 Build 0)  -->
<svg version="1.1" xmlns="http://www.w3.org/2000/svg" xmlns:xlink="http://www.w3.org/1999/xlink" x="0px" y="0px"
	 viewBox="0 0 169.66 404.82" style="enable-background:new 0 0 169.66 404.82;" xml:space="preserve">
<style type="text/css">
	.st0{fill:#F5F5F5;}
	.st1{fill:#EBEBEB;}
	.st2{fill:#E0E0E0;}
	.st3{display:none;}
	.st4{display:inline;}
	.st5{fill:#263238;}
	.st6{fill:#455A64;}
	.st7{opacity:0.3;}
	.st8{fill:#FF725E;}
	.st9{fill:#FFFFFF;}
	.st10{fill:#FAFAFA;stroke:#000000;stroke-width:0.25;stroke-miterlimit:10;}
	.st11{display:inline;fill:#263238;}
	.st12{fill:#FFBE9D;}
	.st13{fill:#EB996E;}
</style>
<g id="Background_Complete">
</g>
<g id="Background_Simple" class="st3">
	<g class="st4">
		<path class="st0" d="M-254.08-64.89l2.43-4.01c20.52-33.81,57.61-54.19,96.72-51.72c5.03,0.32,10.03,1,14.97,2.06
			c35.56,7.61,66.5,34.5,79.32,68.94c7.54,20.25,9.65,43.57,23.96,59.65c18.63,20.92,50.25,21.58,78.06,20.71
			c27.8-0.87,59.45-0.13,77.99,20.88c11.61,13.15,15.3,31.86,14.36,49.48c-2.48,46.64-34.98,88.35-76.31,109.07
			c-41.33,20.73-90,22.59-135.23,13.47c-63.37-12.77-123.63-47.85-159.86-102.04C-273.89,67.41-283.06-6.41-254.08-64.89z"/>
	</g>
</g>
<g id="Floor" class="st3">
	<g class="st4">
		<g>
			<path class="st5" d="M208.96,375.8c0,0.14-101.79,0.26-227.33,0.26c-125.58,0-227.35-0.12-227.35-0.26s101.77-0.26,227.35-0.26
				C107.17,375.54,208.96,375.66,208.96,375.8z"/>
		</g>
	</g>
</g>
<g id="Bags" class="st3">
	<g class="st4">
		<g>
			<rect x="113.89" y="272.95" class="st6" width="90.11" height="102.85"/>
		</g>
		<g>
			<g>
				<path class="st5" d="M182.49,273.84c0.02,0.01-0.11,0.24-0.37,0.67c-0.26,0.43-0.63,1.06-1.14,1.86
					c-1.06,1.57-2.62,3.83-4.91,6.35c-2.28,2.5-5.3,5.27-9.16,7.6c-3.86,2.27-8.68,4.06-13.93,4.08
					c-5.25,0.01-10.08-1.75-13.95-4.01c-3.87-2.31-6.89-5.08-9.18-7.57c-2.29-2.51-3.86-4.78-4.92-6.34
					c-0.51-0.8-0.89-1.43-1.15-1.86c-0.26-0.43-0.38-0.66-0.37-0.67c0.02-0.01,0.17,0.2,0.46,0.61c0.31,0.45,0.72,1.05,1.23,1.8
					c1.11,1.52,2.72,3.74,5.03,6.2c2.31,2.45,5.32,5.15,9.16,7.41c3.83,2.21,8.57,3.92,13.71,3.91c5.14-0.01,9.86-1.75,13.69-3.97
					c3.82-2.27,6.83-4.99,9.13-7.44c2.3-2.47,3.9-4.69,5.01-6.22c0.51-0.75,0.91-1.35,1.22-1.8
					C182.32,274.04,182.48,273.83,182.49,273.84z"/>
			</g>
		</g>
	</g>
	<g class="st4">
		<polygon class="st5" points="151.01,375.4 58.12,375.4 69.61,287.5 139.32,287.5 		"/>
	</g>
	<g class="st4">
		<g>
			<g>
				<polygon class="st8" points="182.95,375.8 104.57,375.4 113.77,311.17 173.26,311.17 				"/>
			</g>
			<g>
				<rect x="128.32" y="346.02" class="st9" width="31.62" height="7.64"/>
			</g>
		</g>
		<g>
			<g>
				<path class="st5" d="M164.94,311.53c0.01,0,0.01,0.08,0,0.23c-0.01,0.18-0.02,0.41-0.04,0.68c-0.04,0.6-0.12,1.48-0.23,2.61
					c-0.25,2.26-0.64,5.53-1.6,9.49c-0.49,1.98-1.13,4.12-2.01,6.35c-0.45,1.11-0.93,2.25-1.51,3.4c-0.55,1.15-1.21,2.31-1.99,3.41
					c-1.56,2.21-3.55,4.31-6,5.97c-1.23,0.82-2.56,1.54-4.04,2.02c-1.47,0.46-3.05,0.64-4.62,0.56c-3.16-0.16-6.12-1.3-8.58-2.94
					c-2.47-1.65-4.39-3.83-5.91-6.06c-3-4.53-4.55-9.2-5.65-13.11c-1.05-3.94-1.5-7.21-1.78-9.46c-0.14-1.13-0.22-2.01-0.27-2.6
					c-0.02-0.27-0.04-0.49-0.05-0.68c-0.01-0.15-0.01-0.23,0-0.23c0.01,0,0.03,0.08,0.05,0.23c0.03,0.18,0.06,0.4,0.1,0.67
					c0.09,0.64,0.21,1.5,0.37,2.59c0.34,2.24,0.84,5.49,1.93,9.39c1.13,3.86,2.71,8.5,5.69,12.93c1.5,2.19,3.4,4.31,5.8,5.91
					c2.39,1.59,5.28,2.69,8.33,2.84c1.52,0.08,3.03-0.1,4.44-0.54c1.4-0.45,2.71-1.16,3.91-1.95c2.4-1.61,4.35-3.66,5.9-5.82
					c0.77-1.08,1.42-2.2,1.97-3.34c0.57-1.13,1.06-2.26,1.52-3.35c0.89-2.2,1.54-4.32,2.05-6.28c1.01-3.92,1.45-7.18,1.76-9.43
					c0.14-1.09,0.25-1.96,0.33-2.59c0.04-0.27,0.07-0.49,0.09-0.67C164.91,311.61,164.93,311.53,164.94,311.53z"/>
			</g>
		</g>
	</g>
</g>
<g id="Speech_Bubble">
</g>
<g id="Receipt">
</g>
<g id="Character">
	<g>
		<g>
			<g>
				<g>
					<g>
						<path class="st5" d="M109.72,29.84c3.92,3.91,5.72,9.83,4.65,15.26c-0.52,2.64-1.61,5.59-0.12,7.83
							c1.48,2.21,4.85,2.55,6.25,4.82c1.65,2.67-0.4,6.1-0.06,9.22c0.31,2.93,3.07,5.38,6.01,5.35c-3.72,2.38-8.11,3.7-12.53,3.77
							c-0.94-1.56-1.89-3.12-2.83-4.68c1.09,1.65,0.47,4-0.93,5.39c-1.41,1.39-3.39,2-5.33,2.37c-9.26,1.78-19.31-1.09-26.23-7.49"
							/>
					</g>
				</g>
			</g>
			<g>
				<g>
					<g>
						<path class="st5" d="M56.89,47.47c0.91-1.96,2.25-3.72,2.95-5.77c1.5-4.4-0.1-9.74,2.56-13.55c1.9-2.71,5.39-3.73,8.64-4.33
							c3.25-0.6,6.72-1.02,9.33-3.05c1.92-1.49,3.17-3.7,5.08-5.2c2.72-2.13,6.42-2.53,9.87-2.33c3.55,0.2,7.15,0.97,10.13,2.89
							c2.98,1.93,5.27,5.15,5.42,8.7c0.08,1.73-0.34,3.48,0,5.18c0.38,1.87,1.62,3.43,2.3,5.21c1.42,3.76-0.14,8.42-3.54,10.57
							L81.79,74.17c-5.3,1.32-17.33-2.45-20.81-6.66C57.5,63.31,54.59,52.43,56.89,47.47z"/>
					</g>
				</g>
			</g>
			<g>
				<g>
					<g>
						<g>
							<g>
								<g>
									<g>
										<g>
											<g>
												<path class="st12" d="M109.46,41.76c-0.16-7.2-4.57-16.21-11.76-15.75l-22.59,4.75c-2.18,0.14-3.9,1.93-3.94,4.12
													l0.21,54.01c-0.05,0.01-0.1,0.02-0.16,0.03c0,0,4.44,15.42,19.42,11.41c2.97-0.8,4.44-3.94,5.17-7.21l0.15,0.03
													c0.02-0.39,0.04-0.76,0.06-1.13c0.65-3.78,0.4-7.4,0.4-7.4l0,0c0.23-4.35,0.3-6.14,0.3-6.09c0,0,9.24-1.15,11.63-13.05
													C109.55,59.55,109.64,49.77,109.46,41.76z"/>
											</g>
										</g>
									</g>
								</g>
							</g>
						</g>
						<g>
							<g>
								<g>
									<g>
										<g>
											<g>
												<g>
													<g>
														<g>
															<g>
																<g>
																	<g>
																		<g>
																			<g>
																				<g>
																					<g>
																						<g>
																							<g>
																								<g>
																									<g>
																										<g>
																											<g>
																												<path class="st5" d="M91.11,50.58c0,0.81-0.7,1.48-1.54,1.49c-0.85,0.01-1.53-0.64-1.53-1.45
																													c0-0.81,0.7-1.48,1.54-1.49C90.43,49.11,91.12,49.76,91.11,50.58z"/>
																											</g>
																										</g>
																									</g>
																								</g>
																							</g>
																						</g>
																					</g>
																				</g>
																			</g>
																		</g>
																	</g>
																</g>
															</g>
															<g>
																<g>
																	<g>
																		<g>
																			<g>
																				<g>
																					<g>
																						<g>
																							<g>
																								<g>
																									<g>
																										<g>
																											<g>
																												<path class="st5" d="M106.77,50.58c0,0.81-0.7,1.48-1.54,1.49c-0.85,0.01-1.53-0.64-1.53-1.45
																													c0-0.81,0.7-1.48,1.54-1.49C106.09,49.11,106.78,49.76,106.77,50.58z"/>
																											</g>
																										</g>
																									</g>
																								</g>
																							</g>
																						</g>
																					</g>
																				</g>
																			</g>
																		</g>
																	</g>
																</g>
															</g>
															<g>
																<g>
																	<g>
																		<g>
																			<g>
																				<g>
																					<g>
																						<g>
																							<g>
																								<g>
																									<g>
																										<g>
																											<g>
																												<g>
																													<path class="st5" d="M107.76,46.99c-0.2,0.26-1.51-0.8-3.31-0.75c-1.8,0.02-3.08,1.13-3.29,0.88
																														c-0.1-0.11,0.09-0.58,0.65-1.08c0.55-0.5,1.5-1,2.62-1.02c1.12-0.02,2.09,0.44,2.65,0.92
																														C107.65,46.42,107.85,46.87,107.76,46.99z"/>
																												</g>
																											</g>
																										</g>
																									</g>
																								</g>
																							</g>
																						</g>
																					</g>
																				</g>
																			</g>
																		</g>
																	</g>
																</g>
															</g>
														</g>
														<g>
															<g>
																<g>
																	<g>
																		<g>
																			<g>
																				<g>
																					<g>
																						<g>
																							<g>
																								<g>
																									<g>
																										<g>
																											<g>
																												<g>
																													<path class="st5" d="M91.08,46.95c-0.24,0.23-1.51-0.94-3.43-1.09c-1.91-0.17-3.4,0.78-3.59,0.51
																														c-0.09-0.12,0.16-0.55,0.81-0.98c0.64-0.43,1.7-0.81,2.89-0.72c1.19,0.1,2.16,0.65,2.71,1.18
																														C91.02,46.38,91.19,46.85,91.08,46.95z"/>
																												</g>
																											</g>
																										</g>
																									</g>
																								</g>
																							</g>
																						</g>
																					</g>
																				</g>
																			</g>
																		</g>
																	</g>
																</g>
															</g>
														</g>
														<g>
															<g>
																<g>
																	<g>
																		<g>
																			<g>
																				<g>
																					<g>
																						<g>
																							<g>
																								<g>
																									<g>
																										<g>
																											<g>
																												<g>
																													<path class="st5" d="M96.38,58.91c0-0.09,1.03-0.23,2.7-0.38c0.42-0.03,0.83-0.09,0.91-0.38
																														c0.11-0.3-0.05-0.76-0.23-1.26c-0.36-1.04-0.73-2.12-1.12-3.26c-1.55-4.65-2.65-8.46-2.46-8.52
																														c0.19-0.06,1.6,3.66,3.14,8.3c0.37,1.15,0.73,2.24,1.06,3.28c0.14,0.49,0.39,1.04,0.15,1.67
																														c-0.13,0.31-0.45,0.53-0.72,0.59c-0.27,0.07-0.51,0.07-0.72,0.07C97.42,59.04,96.38,59,96.38,58.91z"
																														/>
																												</g>
																											</g>
																										</g>
																									</g>
																								</g>
																							</g>
																						</g>
																					</g>
																				</g>
																			</g>
																		</g>
																	</g>
																</g>
															</g>
														</g>
														<g>
															<g>
																<g>
																	<g>
																		<g>
																			<g>
																				<g>
																					<g>
																						<g>
																							<g>
																								<g>
																									<g>
																										<g>
																											<g>
																												<path class="st13" d="M96.73,78.52c0,0-8.08,0.19-15.87-4.93c0,0,3.56,8.39,15.59,7.75L96.73,78.52z"/>
																											</g>
																										</g>
																									</g>
																								</g>
																							</g>
																						</g>
																					</g>
																				</g>
																			</g>
																		</g>
																	</g>
																</g>
															</g>
														</g>
														<g>
															<g>
																<g>
																	<g>
																		<g>
																			<g>
																				<g>
																					<g>
																						<g>
																							<g>
																								<g>
																									<g>
																										<g>
																											<g>
																												<path class="st8" d="M95.52,62.87c-0.56-0.81-1.59-1.28-2.63-1.21c-0.72,0.05-1.46,0.36-1.92,0.93
																													c-0.46,0.57-0.58,1.39-0.21,1.96c0.42,0.65,1.35,0.83,2.14,0.64c0.8-0.19,1.5-0.68,2.16-1.18
																													c0.18-0.14,0.37-0.28,0.49-0.47c0.12-0.19,0.15-0.45,0.02-0.62"/>
																											</g>
																										</g>
																									</g>
																								</g>
																							</g>
																						</g>
																					</g>
																				</g>
																			</g>
																		</g>
																	</g>
																</g>
															</g>
														</g>
														<g>
															<g>
																<g>
																	<g>
																		<g>
																			<g>
																				<g>
																					<g>
																						<g>
																							<g>
																								<g>
																									<g>
																										<g>
																											<g>
																												<g>
																													<path class="st5" d="M91.47,59.86c0.27,0,0.2,1.79,1.68,3.13c1.48,1.34,3.4,1.22,3.41,1.47
																														c0.02,0.11-0.44,0.33-1.25,0.32c-0.79,0-1.94-0.31-2.85-1.12c-0.91-0.82-1.27-1.88-1.3-2.62
																														C91.13,60.28,91.35,59.84,91.47,59.86z"/>
																												</g>
																											</g>
																										</g>
																									</g>
																								</g>
																							</g>
																						</g>
																					</g>
																				</g>
																			</g>
																		</g>
																	</g>
																</g>
															</g>
														</g>
													</g>
												</g>
											</g>
											<g>
												<g>
													<g>
														<g>
															<g>
																<g>
																	<g>
																		<g>
																			<g>
																				<g>
																					<g>
																						<g>
																							<g>
																								<g>
																									<path class="st5" d="M91.58,41.35c-0.18,0.44-1.82,0.16-3.77,0.32c-1.95,0.12-3.54,0.62-3.78,0.21
																										c-0.11-0.2,0.18-0.61,0.83-1.02c0.64-0.41,1.66-0.78,2.83-0.86c1.17-0.08,2.23,0.15,2.92,0.46
																										C91.31,40.77,91.66,41.14,91.58,41.35z"/>
																								</g>
																							</g>
																						</g>
																					</g>
																				</g>
																			</g>
																		</g>
																	</g>
																</g>
															</g>
														</g>
													</g>
												</g>
											</g>
											<g>
												<g>
													<g>
														<g>
															<g>
																<g>
																	<g>
																		<g>
																			<g>
																				<g>
																					<g>
																						<g>
																							<g>
																								<g>
																									<path class="st5" d="M106.72,41.95c-0.35,0.36-1.63-0.08-3.2-0.16c-1.56-0.13-2.9,0.14-3.19-0.27
																										c-0.13-0.2,0.1-0.56,0.69-0.9c0.58-0.33,1.55-0.58,2.63-0.51c1.07,0.07,1.99,0.45,2.52,0.86
																										C106.71,41.38,106.87,41.77,106.72,41.95z"/>
																								</g>
																							</g>
																						</g>
																					</g>
																				</g>
																			</g>
																		</g>
																	</g>
																</g>
															</g>
														</g>
													</g>
												</g>
											</g>
										</g>
									</g>
								</g>
							</g>
						</g>
					</g>
				</g>
			</g>
			<g>
				<g>
					<g>
						<g>
							<g>
								<g>
									<g>
										<g>
											<path class="st5" d="M70.11,31.9c1.29-1.56,3.37-2.19,5.33-2.7c8.46-2.17,17.18-3.33,25.92-3.45
												c0.86,1.89-0.41,4.18-2.18,5.27c-1.77,1.1-3.91,1.36-5.93,1.85c-2.02,0.5-4.13,1.38-5.16,3.19
												c-1.09,1.93-0.65,4.41-1.64,6.39c-1.7,3.41-6.8,3.97-8.48,7.38c-1.27,2.58-0.05,5.64,0.01,8.51
												c0.06,3.26-1.52,6.51-4.13,8.47c-2.06,1.54-4.71,2.23-7.27,1.98c0.61-10.27,1.22-20.55,1.84-30.82
												C68.56,35.85,68.74,33.55,70.11,31.9z"/>
										</g>
									</g>
								</g>
							</g>
						</g>
					</g>
				</g>
			</g>
			<g>
				<g>
					<g>
						<g>
							<path class="st5" d="M46.52,55.26c1.78-1.25,3.95-2.27,4.83-4.26c1.29-2.9-0.71-6.72,1.17-9.28c1.71-2.33,5.88-1.71,7.5-4.11
								c1.27-1.87,0.29-3.78,0.89-5.48c0.6-1.71,3.26-2.95,5.02-2.53L77.5,51.44c0.5,6.93,1.37,10.69-0.55,14.48
								c-1.05,2.08-2.34,4.08-2.93,6.33c-0.58,2.26-0.3,4.93,1.41,6.5c-8.41-0.33-15.7-5.61-22.42-10.67
								c-2.37-1.79-4.74-3.57-7.11-5.36c-0.74-0.56-1.51-1.15-1.89-2C43.11,58.74,44.74,56.52,46.52,55.26z"/>
						</g>
					</g>
				</g>
			</g>
			<g>
				<g>
					<g>
						<g>
							<g>
								<path class="st6" d="M53.05,66.02c0,0,0.28,0.15,0.87,0.28c0.58,0.13,1.48,0.26,2.62,0.12c1.13-0.14,2.53-0.54,3.85-1.52
									c1.32-0.96,2.48-2.57,2.96-4.59c0.23-1.01,0.29-2.11,0.1-3.23c-0.19-1.12-0.68-2.2-1.18-3.28c-0.5-1.08-1.05-2.18-1.22-3.4
									c-0.17-1.19-0.01-2.57,0.86-3.48c0.88-0.93,2.31-1.01,3.68-1.38c0.69-0.19,1.42-0.51,1.93-1.11
									c0.52-0.59,0.76-1.37,0.83-2.12c0.16-1.53-0.32-3-0.44-4.45c-0.06-0.73-0.02-1.47,0.24-2.13c0.26-0.66,0.76-1.21,1.4-1.55
									c1.3-0.72,2.86-0.67,4.35-0.63c1.5,0.07,3.09-0.08,4.44-0.76c1.36-0.63,2.51-1.64,3.31-2.84c0.8-1.22,1.2-2.58,1.55-3.87
									c0.36-1.29,0.69-2.55,1.26-3.65c0.57-1.1,1.39-2.01,2.31-2.72c1.87-1.4,4.09-2,6.07-1.93c1.99,0.07,3.73,0.8,5.03,1.68
									c1.32,0.88,2.27,1.91,2.92,2.82c1.31,1.84,1.58,3.11,1.65,3.08c0.01,0-0.01-0.08-0.05-0.23c-0.05-0.15-0.1-0.37-0.22-0.65
									c-0.21-0.56-0.58-1.37-1.22-2.32c-0.64-0.94-1.58-2.01-2.92-2.94c-1.33-0.93-3.1-1.71-5.17-1.8
									c-2.06-0.09-4.37,0.5-6.33,1.95c-0.96,0.74-1.83,1.69-2.44,2.85c-0.61,1.15-0.95,2.44-1.31,3.73
									c-0.36,1.28-0.76,2.59-1.51,3.73c-0.76,1.13-1.84,2.07-3.13,2.66c-1.28,0.63-2.73,0.77-4.23,0.71
									c-1.48-0.04-3.13-0.11-4.59,0.69c-0.72,0.38-1.33,1.03-1.62,1.8c-0.3,0.77-0.33,1.58-0.27,2.35
									c0.13,1.54,0.6,2.96,0.44,4.37c-0.07,0.69-0.28,1.36-0.71,1.85c-0.43,0.5-1.05,0.79-1.7,0.97
									c-0.65,0.19-1.34,0.29-2.02,0.49c-0.67,0.19-1.36,0.5-1.86,1.03c-1.01,1.08-1.15,2.59-0.96,3.85
									c0.19,1.31,0.78,2.44,1.28,3.51c0.51,1.07,0.99,2.11,1.18,3.17c0.19,1.06,0.14,2.12-0.07,3.08
									c-0.43,1.94-1.53,3.5-2.78,4.45c-1.26,0.97-2.61,1.39-3.71,1.55C54.26,66.52,53.05,65.93,53.05,66.02z"/>
							</g>
						</g>
					</g>
				</g>
			</g>
			<g>
				<g>
					<g>
						<g>
							<g>
								<path class="st5" d="M43.62,50.35c0,0-0.19,0.18-0.35,0.65c-0.16,0.46-0.24,1.23,0.11,2.11c0.19,0.43,0.48,0.89,0.93,1.25
									c0.45,0.36,1.05,0.62,1.72,0.68c1.32,0.17,2.98-0.44,3.92-1.89c0.47-0.7,0.78-1.56,0.89-2.47c0.11-0.92-0.02-1.88-0.26-2.82
									c-0.45-1.88-1.44-3.78-1.22-5.89c0.1-1.02,0.47-2.11,1.3-2.75c0.83-0.67,2-0.71,3.14-0.59c1.15,0.1,2.37,0.39,3.65,0.05
									c0.63-0.17,1.22-0.55,1.63-1.07c0.42-0.52,0.67-1.14,0.83-1.77c0.31-1.28,0.15-2.55,0.14-3.74c-0.04-1.2,0.16-2.35,0.6-3.41
									c0.87-2.12,2.55-3.79,4.48-4.63c1.93-0.88,4.04-0.75,5.93-0.64c1.91,0.12,3.75,0.22,5.37-0.21c1.62-0.4,2.96-1.12,4.01-1.91
									c1.06-0.78,1.81-1.64,2.35-2.39c1.07-1.51,1.3-2.53,1.3-2.53c-0.06-0.03-0.35,0.97-1.46,2.41
									c-0.56,0.71-1.32,1.54-2.36,2.28c-1.04,0.75-2.36,1.43-3.93,1.79c-1.57,0.39-3.35,0.28-5.27,0.14
									c-1.89-0.12-4.07-0.29-6.14,0.63c-2.04,0.88-3.81,2.63-4.74,4.86c-0.46,1.11-0.69,2.37-0.64,3.6
									c0.02,1.22,0.16,2.46-0.12,3.62c-0.26,1.16-1,2.21-2.11,2.49c-1.1,0.3-2.3,0.04-3.47-0.06c-1.16-0.12-2.49-0.09-3.47,0.7
									c-0.98,0.77-1.36,1.98-1.46,3.08c-0.11,1.11,0.1,2.21,0.4,3.19c0.29,0.99,0.64,1.92,0.88,2.84
									c0.24,0.91,0.37,1.82,0.28,2.68c-0.09,0.86-0.37,1.66-0.81,2.32c-0.85,1.35-2.37,1.94-3.61,1.81
									c-0.62-0.05-1.18-0.28-1.61-0.6c-0.43-0.32-0.71-0.74-0.9-1.14c-0.36-0.82-0.32-1.56-0.19-2
									C43.49,50.57,43.64,50.36,43.62,50.35z"/>
							</g>
						</g>
					</g>
				</g>
			</g>
			<g>
				<g>
					<g>
						<g>
							<g>
								<path class="st5" d="M130.85,65.66c-0.08-0.01,0.36,0.85-0.28,2.18c-0.32,0.62-0.95,1.35-1.94,1.55
									c-0.96,0.21-2.22-0.19-2.96-1.2c-0.37-0.5-0.55-1.15-0.51-1.83c0.03-0.68,0.25-1.39,0.57-2.07
									c0.61-1.36,1.69-2.79,1.77-4.64c0.11-1.8-0.58-3.73-1.97-5.11c-0.68-0.7-1.52-1.27-2.44-1.67
									c-0.92-0.42-1.93-0.61-2.92-0.78c-0.99-0.17-1.96-0.31-2.85-0.64c-0.88-0.32-1.64-0.88-2.08-1.66
									c-0.44-0.77-0.56-1.69-0.52-2.56c0.04-0.88,0.25-1.73,0.52-2.54c0.54-1.62,1.23-3.18,1.32-4.79
									c0.1-1.59-0.33-3.07-1.01-4.22c-0.68-1.18-1.64-1.96-2.44-2.61c-0.81-0.65-1.51-1.22-1.99-1.76c-1-1.07-1.09-1.95-1.16-1.91
									c-0.01,0,0,0.05,0.02,0.15c0.03,0.1,0.04,0.25,0.12,0.43c0.12,0.37,0.39,0.9,0.88,1.46c0.48,0.57,1.17,1.17,1.96,1.84
									c0.79,0.68,1.7,1.45,2.32,2.58c0.63,1.11,1.02,2.52,0.91,4.02c-0.1,1.51-0.78,3.02-1.34,4.67
									c-0.28,0.83-0.51,1.73-0.56,2.66c-0.05,0.93,0.07,1.93,0.57,2.82c0.49,0.89,1.38,1.53,2.32,1.88
									c0.95,0.36,1.95,0.5,2.94,0.67c0.98,0.17,1.94,0.35,2.8,0.74c0.87,0.38,1.65,0.92,2.29,1.56c1.3,1.29,1.95,3.08,1.86,4.75
									c-0.05,1.7-1.06,3.07-1.69,4.5c-0.32,0.72-0.55,1.47-0.57,2.22c-0.03,0.75,0.18,1.5,0.61,2.05c0.85,1.11,2.23,1.51,3.3,1.26
									c1.09-0.26,1.74-1.07,2.05-1.74c0.32-0.69,0.33-1.3,0.28-1.69C130.96,65.84,130.85,65.66,130.85,65.66z"/>
							</g>
						</g>
					</g>
				</g>
			</g>
		</g>
		<g>
			<g>
				<g>
					<g>
						<g>
							<g>
								<g>
									<g>
										<g>
											<g>
												<g>
													<g>
														<g>
															<path class="st8" d="M127.53,348.62l-0.34,23.19c0,0,25.12,8.95,24.97,14.32l-46.39,0.13l1.6-13.94l-2.46-23.2
																L127.53,348.62z"/>
														</g>
													</g>
												</g>
											</g>
										</g>
									</g>
								</g>
							</g>
						</g>
						<g>
							<g>
								<g>
									<g>
										<g>
											<g>
												<g>
													<g>
														<g>
															<path class="st5" d="M105.72,386.69l0.48-4.21l44.55,1.09c0,0,1.42,1.14,1.41,2.55L105.72,386.69z"/>
														</g>
													</g>
												</g>
											</g>
										</g>
									</g>
								</g>
							</g>
						</g>
						<g>
							<g>
								<g>
									<g>
										<g>
											<g>
												<g>
													<g>
														<g>
															<g>
																<path class="st5" d="M128.38,372.5c-0.01,0.23-1.15,0.34-2.27,1.07c-1.14,0.71-1.72,1.7-1.93,1.61
																	c-0.21-0.04,0.13-1.41,1.5-2.28C127.05,372.02,128.43,372.29,128.38,372.5z"/>
															</g>
														</g>
													</g>
												</g>
											</g>
										</g>
									</g>
								</g>
							</g>
						</g>
						<g>
							<g>
								<g>
									<g>
										<g>
											<g>
												<g>
													<g>
														<g>
															<g>
																<path class="st5" d="M133.3,374.51c0.05,0.22-0.94,0.61-1.71,1.58c-0.8,0.95-1,1.99-1.22,1.98
																	c-0.21,0.04-0.38-1.3,0.61-2.49C131.95,374.39,133.29,374.3,133.3,374.51z"/>
															</g>
														</g>
													</g>
												</g>
											</g>
										</g>
									</g>
								</g>
							</g>
						</g>
						<g>
							<g>
								<g>
									<g>
										<g>
											<g>
												<g>
													<g>
														<g>
															<g>
																<path class="st5" d="M136.11,380.38c-0.21,0.05-0.53-1.09,0.05-2.35c0.57-1.26,1.65-1.76,1.75-1.57
																	c0.13,0.19-0.56,0.86-1.03,1.9C136.4,379.4,136.33,380.36,136.11,380.38z"/>
															</g>
														</g>
													</g>
												</g>
											</g>
										</g>
									</g>
								</g>
							</g>
						</g>
						<g>
							<g>
								<g>
									<g>
										<g>
											<g>
												<g>
													<g>
														<g>
															<g>
																<path class="st5" d="M127.95,366.98c-0.1,0.21-1.15-0.1-2.44-0.01c-1.29,0.07-2.3,0.5-2.42,0.31
																	c-0.13-0.17,0.85-1.01,2.37-1.1C126.99,366.07,128.07,366.8,127.95,366.98z"/>
															</g>
														</g>
													</g>
												</g>
											</g>
										</g>
									</g>
								</g>
							</g>
						</g>
					</g>
				</g>
			</g>
			<g>
				<g>
					<g>
						<path class="st5" d="M126.14,366.94c0.03,0.01,0.18-0.3,0.23-0.92c0.05-0.61-0.02-1.55-0.58-2.53
							c-0.14-0.24-0.31-0.49-0.51-0.72c-0.2-0.23-0.45-0.49-0.85-0.59c-0.37-0.1-0.93,0.05-1.07,0.57c-0.1,0.49,0.16,0.85,0.33,1.15
							c0.37,0.62,0.75,1.25,1.14,1.91l0.3,0.5l0.16,0.26c0.06,0.09,0.15,0.26,0.4,0.31c0.26,0.03,0.4-0.11,0.48-0.15l0.25-0.18
							l0.49-0.38c0.65-0.52,1.25-1.08,1.78-1.66c0.27-0.29,0.52-0.58,0.75-0.88c0.22-0.29,0.49-0.6,0.6-1.03
							c0.05-0.21,0.04-0.49-0.1-0.7c-0.13-0.22-0.39-0.34-0.61-0.35c-0.44-0.02-0.78,0.15-1.06,0.34c-0.56,0.37-0.99,0.82-1.3,1.28
							c-0.64,0.92-0.84,1.84-0.88,2.44c-0.03,0.62,0.06,0.95,0.09,0.94c0.05,0,0.03-0.34,0.13-0.92c0.1-0.57,0.34-1.41,0.98-2.24
							c0.31-0.41,0.72-0.81,1.24-1.12c0.24-0.16,0.53-0.26,0.77-0.24c0.22,0.03,0.34,0.19,0.27,0.45c-0.07,0.27-0.28,0.53-0.52,0.82
							c-0.23,0.28-0.48,0.57-0.74,0.84c-0.52,0.55-1.1,1.09-1.73,1.59l-0.48,0.36l-0.24,0.17c-0.04,0.03-0.07,0.05-0.09,0.06
							c-0.02-0.03,0.02,0.11,0.01,0.08c-0.02,0.01,0.06-0.09,0.03-0.07c-0.01-0.01-0.03-0.03-0.05-0.07l-0.15-0.25l-0.31-0.5
							c-0.4-0.65-0.79-1.29-1.17-1.9c-0.19-0.29-0.34-0.59-0.29-0.78c0.02-0.18,0.27-0.29,0.5-0.24c0.46,0.12,0.85,0.66,1.13,1.06
							c0.55,0.88,0.68,1.75,0.7,2.33C126.17,366.6,126.09,366.93,126.14,366.94z"/>
					</g>
				</g>
			</g>
			<g>
				<g>
					<g>
						<g>
							<g>
								<g>
									<g>
										<g>
											<g>
												<g>
													<g>
														<g>
															<path class="st8" d="M43.84,349.64l-3.2,22.97c0,0,23.82,11.99,23.01,17.29l-46.05-5.6l3.3-13.64l0.42-23.33
																L43.84,349.64z"/>
														</g>
													</g>
												</g>
											</g>
										</g>
									</g>
								</g>
							</g>
						</g>
						<g>
							<g>
								<g>
									<g>
										<g>
											<g>
												<g>
													<g>
														<g>
															<path class="st5" d="M17.49,384.73l1-4.12l44.07,6.58c0,0,1.27,1.3,1.09,2.71L17.49,384.73z"/>
														</g>
													</g>
												</g>
											</g>
										</g>
									</g>
								</g>
							</g>
						</g>
						<g>
							<g>
								<g>
									<g>
										<g>
											<g>
												<g>
													<g>
														<g>
															<g>
																<path class="st5" d="M41.73,373.44c-0.03,0.23-1.18,0.19-2.39,0.79c-1.22,0.56-1.92,1.48-2.11,1.36
																	c-0.2-0.07,0.3-1.39,1.77-2.08C40.47,372.8,41.81,373.24,41.73,373.44z"/>
															</g>
														</g>
													</g>
												</g>
											</g>
										</g>
									</g>
								</g>
							</g>
						</g>
						<g>
							<g>
								<g>
									<g>
										<g>
											<g>
												<g>
													<g>
														<g>
															<g>
																<path class="st5" d="M46.37,376.05c0.03,0.23-1,0.49-1.89,1.36c-0.91,0.84-1.23,1.85-1.46,1.82
																	c-0.22,0.01-0.21-1.34,0.91-2.4C45.04,375.77,46.39,375.84,46.37,376.05z"/>
															</g>
														</g>
													</g>
												</g>
											</g>
										</g>
									</g>
								</g>
							</g>
						</g>
						<g>
							<g>
								<g>
									<g>
										<g>
											<g>
												<g>
													<g>
														<g>
															<g>
																<path class="st5" d="M48.43,382.22c-0.21,0.02-0.39-1.15,0.34-2.32c0.73-1.18,1.86-1.54,1.93-1.34
																	c0.11,0.2-0.66,0.79-1.25,1.76C48.84,381.28,48.65,382.23,48.43,382.22z"/>
															</g>
														</g>
													</g>
												</g>
											</g>
										</g>
									</g>
								</g>
							</g>
						</g>
						<g>
							<g>
								<g>
									<g>
										<g>
											<g>
												<g>
													<g>
														<g>
															<g>
																<path class="st5" d="M41.99,367.91c-0.12,0.2-1.12-0.24-2.42-0.31c-1.29-0.1-2.34,0.21-2.44,0.01
																	c-0.11-0.18,0.97-0.9,2.49-0.8C41.15,366.9,42.12,367.75,41.99,367.91z"/>
															</g>
														</g>
													</g>
												</g>
											</g>
										</g>
									</g>
								</g>
							</g>
						</g>
					</g>
				</g>
			</g>
			<g>
				<g>
					<g>
						<path class="st5" d="M40.19,367.65c0.02,0.01,0.22-0.28,0.34-0.89c0.12-0.6,0.17-1.54-0.26-2.59
							c-0.11-0.26-0.24-0.52-0.42-0.78c-0.17-0.25-0.39-0.54-0.77-0.69c-0.35-0.15-0.93-0.06-1.13,0.44
							c-0.16,0.48,0.05,0.86,0.18,1.18c0.29,0.66,0.59,1.34,0.9,2.04l0.24,0.53l0.12,0.27c0.05,0.1,0.11,0.27,0.36,0.36
							c0.26,0.06,0.41-0.06,0.49-0.09l0.27-0.15l0.54-0.31c0.71-0.43,1.37-0.92,1.97-1.42c0.3-0.25,0.59-0.52,0.86-0.78
							c0.26-0.26,0.57-0.54,0.72-0.95c0.08-0.2,0.1-0.48-0.02-0.71c-0.1-0.23-0.35-0.39-0.56-0.43c-0.43-0.08-0.79,0.05-1.1,0.2
							c-0.6,0.29-1.08,0.69-1.45,1.11c-0.75,0.83-1.06,1.72-1.17,2.32c-0.11,0.61-0.06,0.95-0.03,0.95c0.05,0,0.07-0.33,0.24-0.9
							c0.17-0.56,0.52-1.36,1.25-2.1c0.36-0.37,0.82-0.71,1.36-0.96c0.25-0.13,0.56-0.2,0.79-0.14c0.22,0.06,0.31,0.23,0.21,0.48
							c-0.1,0.26-0.34,0.5-0.61,0.75c-0.26,0.25-0.54,0.5-0.84,0.74c-0.58,0.49-1.23,0.95-1.91,1.37l-0.52,0.3l-0.26,0.14
							c-0.05,0.02-0.08,0.04-0.09,0.05c-0.02-0.03,0,0.11,0,0.08c-0.02,0.01,0.07-0.09,0.04-0.07c-0.01-0.01-0.03-0.04-0.04-0.07
							l-0.12-0.27l-0.24-0.53c-0.32-0.7-0.63-1.38-0.93-2.03c-0.15-0.31-0.26-0.62-0.19-0.81c0.05-0.18,0.31-0.25,0.52-0.18
							c0.45,0.17,0.77,0.76,0.99,1.19c0.44,0.94,0.46,1.82,0.4,2.4C40.27,367.32,40.15,367.64,40.19,367.65z"/>
					</g>
				</g>
			</g>
			<g>
				<g>
					<g>
						<path class="st5" d="M100.82,216.99c0,0,24.59,48.13,28.05,62.68c3.46,14.54-0.34,86.43-0.34,86.43l-23.6,1.81
							c0,0-1.68-26.95-4.11-43.23c-2.42-16.28-4.29-28.4-2.49-33.24c1.8-4.85-23.13-39.95-23.13-39.95l-12.05-19.02l9.79-27.89
							L100.82,216.99z"/>
					</g>
				</g>
				<g>
					<g>
						<g>
							<path class="st6" d="M104.92,273.65c-0.12-0.05-1.74,3.83-3.62,8.67c-1.88,4.84-3.3,8.8-3.18,8.84
								c0.12,0.05,1.74-3.83,3.62-8.67C103.62,277.66,105.04,273.7,104.92,273.65z"/>
						</g>
					</g>
				</g>
			</g>
			<g>
				<g>
					<g>
						<path class="st5" d="M85.98,220.28c0,0-24.93,73.07-27.36,75.84c-2.42,2.77-16.63,71.8-16.63,71.8l-21.03-0.53
							c0,0-0.64-51.83,2.83-65.34c3.46-13.51,8.86-35.01,10.94-52.67c2.08-17.66-0.69-27.48,0-39.02s3.81-17.2,3.81-17.2l47.44,20.2
							V220.28z"/>
					</g>
				</g>
				<g>
					<g>
						<g>
							<path class="st6" d="M83.17,228.57c-0.02-0.01-0.12,0.23-0.3,0.69c-0.19,0.5-0.45,1.17-0.78,2.01
								c-0.67,1.8-1.61,4.33-2.77,7.43c-2.31,6.28-5.42,14.99-8.86,24.61c-3.43,9.62-6.58,18.32-8.91,24.59
								c-1.16,3.1-2.1,5.63-2.78,7.42c-0.31,0.85-0.56,1.52-0.75,2.02c-0.17,0.46-0.25,0.71-0.23,0.72
								c0.02,0.01,0.12-0.23,0.32-0.68c0.21-0.49,0.48-1.16,0.83-1.99c0.71-1.73,1.72-4.25,2.92-7.37
								c2.42-6.24,5.61-14.93,9.05-24.55c3.4-9.61,6.48-18.31,8.73-24.66c1.1-3.12,1.99-5.67,2.62-7.48
								c0.29-0.85,0.52-1.53,0.69-2.04C83.11,228.83,83.18,228.58,83.17,228.57z"/>
						</g>
					</g>
				</g>
				<g>
					<g>
						<g>
							<path class="st6" d="M41.23,206.38c-0.02,0.02,0.15,0.25,0.5,0.63c0.35,0.38,0.91,0.89,1.65,1.44
								c1.48,1.1,3.85,2.3,6.69,2.65c2.84,0.35,5.43-0.22,7.14-0.93c0.86-0.35,1.52-0.71,1.96-0.99c0.44-0.28,0.66-0.46,0.64-0.48
								c-0.04-0.07-1,0.55-2.72,1.15c-1.7,0.61-4.21,1.11-6.96,0.77c-2.74-0.34-5.06-1.45-6.55-2.46
								C42.06,207.17,41.29,206.32,41.23,206.38z"/>
						</g>
					</g>
				</g>
			</g>
		</g>
		<g>
			<g>
				<g>
					<g>
						<g>
							<g>
								<g>
									<g>
										<g>
											<g>
												<path class="st12" d="M123.78,113.83l-13.53,15.63l1.47,4.28l6.9,7.93c0,0,2.54,1.34,6.75-6.27
													c4.21-7.61,8.33-21.54,8.33-21.54L123.78,113.83z"/>
											</g>
										</g>
									</g>
								</g>
							</g>
						</g>
					</g>
				</g>
			</g>
			<g>
				<g>
					<g>
						<g>
							<g>
								<g>
									<g>
										<g>
											<g>
												<g>
													<path class="st5" d="M148.5,78.85c-0.35-0.44-0.91-0.66-1.47-0.58l-9.45,1.3c-0.83,0.13-1.56,0.6-2.02,1.31
														l-19.63,30.17l1.51,0.84l10.45-0.33l20.9-32.34L148.5,78.85z"/>
												</g>
											</g>
										</g>
									</g>
								</g>
							</g>
						</g>
					</g>
				</g>
				<g>
					<g>
						<g>
							<g>
								<g>
									<g>
										<g>
											<g>
												<g>
													<path class="st9" d="M141.81,82.77c0.2,0.18,0.56,0.1,0.79-0.17c0.24-0.27,0.26-0.63,0.06-0.81
														c-0.2-0.18-0.56-0.1-0.79,0.17C141.63,82.23,141.6,82.59,141.81,82.77z"/>
												</g>
											</g>
										</g>
									</g>
								</g>
							</g>
						</g>
					</g>
				</g>
				<g>
					<g>
						<g>
							<g>
								<g>
									<g>
										<g>
											<g>
												<g>
													<g>
														<path class="st6" d="M148.79,79.22c0.01,0.04-0.65,0.17-1.83,0.36c-1.28,0.2-2.97,0.46-5.01,0.78
															c-1.07,0.16-2.23,0.33-3.46,0.51c-0.6,0.05-1.12,0.36-1.46,0.86c-0.36,0.56-0.74,1.14-1.12,1.73
															c-1.55,2.38-3.24,4.99-5.01,7.73c-3.57,5.47-6.83,10.41-9.21,13.97c-1.16,1.71-2.12,3.13-2.85,4.2
															c-0.68,0.98-1.08,1.52-1.11,1.5c-0.03-0.02,0.3-0.6,0.92-1.62c0.69-1.1,1.6-2.54,2.69-4.3
															c2.3-3.61,5.5-8.59,9.07-14.06c1.79-2.73,3.49-5.33,5.05-7.7c0.39-0.59,0.77-1.17,1.14-1.73
															c0.41-0.62,1.14-1,1.8-1.04c1.24-0.16,2.4-0.3,3.48-0.44c2.06-0.24,3.75-0.45,5.04-0.6
															C148.13,79.23,148.79,79.18,148.79,79.22z"/>
													</g>
												</g>
											</g>
										</g>
									</g>
								</g>
							</g>
						</g>
					</g>
				</g>
			</g>
			<g>
				<g>
					<g>
						<g>
							<g>
								<g>
									<g>
										<g>
											<g>
												<g>
													<path class="st12" d="M138.31,90c0,0-0.84-0.15-1.3,2.15c-0.46,2.3-1.95,8.91-1.95,8.91l-4.41-2.34l-5.52,0.72
														c0,0-1.2,1.11-0.32,1.72c0.88,0.6,4.37,1.23,4.37,1.23l2.57,3.7l-7.39-3.56c0,0-2.47,0.64-1.74,2.15
														c0.72,1.5,5.7,6.21,5.7,6.21l-3.7-0.28l-4.4-2.67c0,0-1.35,0.06-0.85,1.21c0.5,1.15,5.08,5.31,5.08,5.31l5.55,2.69
														c0,0,3.03-0.24,3.32-1.13c0.29-0.89,0.36-2.16,0.36-2.16s1.61-0.43,1.91-1.21c0.3-0.78,0.11-2.01,0.11-2.01
														s2.52,0.44,2.84-0.96c0.31-1.41,0.05-4.18-0.2-5.26c-0.25-1.08,1.08-11.15,0.97-11.45
														C139.21,92.65,139.89,89.34,138.31,90z"/>
												</g>
											</g>
										</g>
									</g>
								</g>
							</g>
						</g>
					</g>
				</g>
				<g>
					<g>
						<g>
							<g>
								<g>
									<g>
										<g>
											<g>
												<g>
													<g>
														<path class="st13" d="M133.52,116.03c0.02,0.07-0.52,0.3-1.45,0.45c-0.93,0.15-2.25,0.17-3.66-0.17
															c-1.41-0.34-2.58-0.95-3.34-1.5c-0.76-0.55-1.14-1-1.09-1.05c0.1-0.14,1.86,1.38,4.56,2
															C131.23,116.42,133.49,115.86,133.52,116.03z"/>
													</g>
												</g>
											</g>
										</g>
									</g>
								</g>
							</g>
						</g>
					</g>
				</g>
				<g>
					<g>
						<g>
							<g>
								<g>
									<g>
										<g>
											<g>
												<g>
													<g>
														<path class="st13" d="M132.2,114.04c-0.09,0.13-1.07-0.39-2.12-1.25c-1.05-0.86-1.75-1.72-1.64-1.83
															c0.11-0.11,0.97,0.55,2,1.39C131.47,113.2,132.29,113.91,132.2,114.04z"/>
													</g>
												</g>
											</g>
										</g>
									</g>
								</g>
							</g>
						</g>
					</g>
				</g>
				<g>
					<g>
						<g>
							<g>
								<g>
									<g>
										<g>
											<g>
												<g>
													<g>
														<path class="st13" d="M135.12,109.25c-0.08,0.13-1.06-0.38-2.04-1.29c-0.99-0.91-1.57-1.84-1.44-1.94
															c0.13-0.1,0.88,0.64,1.83,1.52C134.41,108.43,135.21,109.12,135.12,109.25z"/>
													</g>
												</g>
											</g>
										</g>
									</g>
								</g>
							</g>
						</g>
					</g>
				</g>
				<g>
					<g>
						<g>
							<g>
								<g>
									<g>
										<g>
											<g>
												<g>
													<g>
														<path class="st13" d="M138.19,105.39c-0.15,0.06-0.71-0.98-1.59-2.11c-0.87-1.14-1.73-1.95-1.63-2.08
															c0.09-0.12,1.16,0.52,2.08,1.73C137.99,104.14,138.33,105.34,138.19,105.39z"/>
													</g>
												</g>
											</g>
										</g>
									</g>
								</g>
							</g>
						</g>
					</g>
				</g>
			</g>
			<g>
				<g>
					<path class="st8" d="M129.9,129.25l-9.84-13.95l-4.58,5.82l-11.62,9.89l8.8,34.54l6.87-6.91c0,0,6.86-19.69,7.16-23.6
						L129.9,129.25z"/>
				</g>
			</g>
			<g>
				<g>
					<path class="st9" d="M97.23,87.65c-5.5,1.16-15.7-4.27-26.05-8.44l9.13,32.26l32.35,58.21l-2.19-51.77L97.23,87.65z"/>
				</g>
			</g>
			<g>
				<g>
					<path class="st8" d="M97.56,88.01c0,0,13.06,21.33,14.09,23.77c1.03,2.44,3.7,13.19,5.02,20.88
						c1.31,7.69,3.36,30.64,3.39,45.89c0.02,7.97-0.08,15.39-0.19,21.23c-0.15,7.72-4.44,14.75-11.22,18.44v0
						c0,0,1.24-65.61,0.76-69.13c-0.48-3.52,0.45-10.3-0.76-20.24c-1.06-8.72-3.17-13.44-4.78-17.19
						c-1.62-3.75-5.55-16.13-6.3-20.81C96.81,86.16,97.56,88.01,97.56,88.01z"/>
				</g>
			</g>
			<g>
				<g>
					<path class="st8" d="M52.91,83.22l13.22-1.5l4.63-3.44l4.8,4.79c14.86,14.81,25.63,33.24,31.11,53.49
						c2.67,9.88,4.87,20.73,5.36,30.88c1.44,29.28-2.41,52.5-3.48,52.5c-1.08,0-80.22-21.58-80.22-21.58l3.88-27.5l11.83-79.05
						C44.04,91.82,47.46,83.75,52.91,83.22z"/>
				</g>
			</g>
			<g>
				<g>
					<path class="st8" d="M17.96,149.36c0,0,0.27-12.37,3.23-18.28c2.96-5.92,25.04-43.07,25.04-43.07s29.54,19.41,16.64,57.05
						l-4.3,1.34c0,0,2.69,1.88,2.15,4.57c0,0,7.31-0.54,9.44,4.44c0,0,3.2-0.13,5.08,1.48c1.88,1.61,11.56,12.19,11.56,12.19
						s-9.95,17.38-13.44,17.65c-3.5,0.27-1.34,0-1.34,0l-9.68-7.26c0,0-14.25,2.42-20.97,0.27c-6.72-2.15-11.29-7.88-13.71-10.66
						C25.22,166.3,17.57,155.24,17.96,149.36z"/>
				</g>
			</g>
			<g>
				<g>
					<g>
						<path class="st5" d="M43.43,152.9c0.11,0.14,2.69-2.68,6.91-4.5c4.2-1.84,8.02-1.89,7.99-2.07c0-0.05-0.94-0.1-2.45,0.08
							c-1.51,0.18-3.59,0.63-5.73,1.56c-2.14,0.94-3.88,2.16-5.02,3.16C43.98,152.13,43.39,152.87,43.43,152.9z"/>
					</g>
				</g>
			</g>
			<g>
				<g>
					<g>
						<path class="st5" d="M36.08,134.26c-0.01,0.03,0.32,0.19,0.92,0.46c0.7,0.31,1.55,0.69,2.55,1.14
							c2.15,0.97,5.1,2.37,8.27,4.07c3.17,1.71,5.96,3.4,7.95,4.66c0.93,0.59,1.72,1.09,2.36,1.5c0.56,0.36,0.88,0.54,0.89,0.51
							c0.02-0.03-0.26-0.26-0.79-0.66c-0.52-0.4-1.3-0.96-2.28-1.63c-1.95-1.34-4.73-3.09-7.91-4.8c-3.18-1.71-6.17-3.07-8.36-3.96
							c-1.1-0.45-1.99-0.79-2.62-1C36.44,134.34,36.09,134.23,36.08,134.26z"/>
					</g>
				</g>
			</g>
			<g>
				<g>
					<g>
						<path class="st5" d="M59.87,164.42c0.13,0.1,1.6-3.12,4.96-5.67c3.32-2.6,6.8-3.21,6.74-3.37c-0.01-0.05-0.87,0.02-2.21,0.44
							c-1.33,0.41-3.12,1.24-4.82,2.55c-1.7,1.31-2.94,2.83-3.68,4.02C60.12,163.58,59.82,164.4,59.87,164.42z"/>
					</g>
				</g>
			</g>
			<g>
				<g>
					<g>
						<path class="st5" d="M63.81,179.72c0.06,0.03,0.75-1.18,1.92-3.11c1.17-1.93,2.85-4.55,4.87-7.33
							c2.03-2.78,4.01-5.18,5.49-6.88c1.48-1.7,2.43-2.73,2.38-2.78c-0.02-0.02-0.29,0.21-0.75,0.64c-0.46,0.43-1.1,1.09-1.88,1.91
							c-1.55,1.65-3.59,4.03-5.63,6.82c-2.04,2.79-3.68,5.46-4.78,7.44c-0.55,0.99-0.97,1.8-1.25,2.37
							C63.92,179.39,63.78,179.71,63.81,179.72z"/>
					</g>
				</g>
			</g>
			<g>
				<g>
					<g>
						<path class="st5" d="M73.72,178.76c0.01-0.02-0.09-0.14-0.36-0.25c-0.26-0.1-0.7-0.16-1.2,0.01c-0.49,0.16-1.07,0.65-1.14,1.4
							c-0.09,0.7,0.25,1.57,1.06,1.94c0.82,0.34,1.69-0.02,2.13-0.59c0.48-0.59,0.38-1.37,0.1-1.8c-0.27-0.46-0.66-0.69-0.94-0.76
							c-0.28-0.07-0.44-0.03-0.44,0c-0.03,0.07,0.68,0.1,1.08,0.92c0.19,0.39,0.23,0.95-0.14,1.37c-0.34,0.42-1.04,0.67-1.6,0.42
							c-0.57-0.25-0.86-0.92-0.81-1.46c0.04-0.56,0.44-0.96,0.83-1.13C73.12,178.47,73.71,178.84,73.72,178.76z"/>
					</g>
				</g>
			</g>
			<g>
				<g>
					<g>
						<path class="st5" d="M93.58,208.12c0,0,1.44-0.87,3.43-3.08c1.97-2.2,4.33-5.88,5.69-10.91c0.68-2.51,1.11-5.33,1.27-8.37
							c0.17-3.04,0.08-6.29-0.15-9.7c-0.45-6.81-1.31-14.29-2.71-22.05c-2.76-15.56-7.19-29.26-11.05-38.91
							c-3.81-9.68-6.89-15.37-6.89-15.37c-0.01,0,0.03,0.1,0.1,0.28c0.09,0.2,0.2,0.47,0.35,0.8c0.33,0.72,0.8,1.74,1.39,3.05
							c0.59,1.34,1.3,2.97,2.12,4.85c0.77,1.91,1.71,4.07,2.61,6.5c3.77,9.66,8.14,23.35,10.89,38.87c1.4,7.75,2.27,15.21,2.75,22
							c0.24,3.4,0.35,6.63,0.2,9.65c-0.15,3.02-0.55,5.82-1.2,8.31c-1.3,5-3.6,8.66-5.51,10.88c-0.95,1.12-1.81,1.89-2.39,2.41
							c-0.28,0.24-0.51,0.43-0.68,0.57C93.65,208.05,93.58,208.12,93.58,208.12z"/>
					</g>
				</g>
			</g>
			<g>
				<g>
					<g>
						<path class="st5" d="M85.51,206.38c0.01,0.01,0.17-0.1,0.46-0.32c0.28-0.23,0.73-0.53,1.24-1c1.06-0.89,2.49-2.28,4.06-4.15
							c1.56-1.88,3.26-4.24,4.71-7.09c1.46-2.83,2.73-6.14,3.17-9.77c0.44-3.63,0.06-7.13-0.68-10.2c-0.78-3.07-1.92-5.72-3.13-7.82
							c-1.21-2.1-2.4-3.68-3.31-4.7c-0.43-0.53-0.83-0.89-1.07-1.16c-0.25-0.26-0.39-0.39-0.4-0.38c-0.03,0.03,0.48,0.58,1.33,1.64
							c0.86,1.05,2,2.64,3.16,4.74c1.16,2.09,2.25,4.73,3,7.76c0.71,3.03,1.07,6.49,0.63,10.06c-0.43,3.56-1.67,6.84-3.09,9.65
							c-1.41,2.82-3.07,5.19-4.59,7.07c-1.53,1.88-2.91,3.29-3.93,4.21C86.07,205.87,85.48,206.35,85.51,206.38z"/>
					</g>
				</g>
			</g>
			<g>
				<g>
					<g>
						<path class="st5" d="M27.64,169.08c0,0,0.15,0.2,0.45,0.57c0.3,0.37,0.76,0.91,1.36,1.61c1.22,1.38,3.05,3.43,5.86,5.5
							c1.41,1.02,3.07,2.04,5.05,2.78c1.97,0.78,4.27,1.1,6.7,1.24c4.87,0.26,10.38-0.1,16.37-0.86l-0.15-0.04
							c2.78,2.11,5.71,4.32,8.75,6.63l0.03,0.02l0.03,0.01c0.36,0.12,0.77,0.26,1.18,0.4l0.05,0.02l0.04-0.01
							c1-0.18,1.66-0.84,2.32-1.44c0.65-0.62,1.25-1.3,1.82-2c1.15-1.41,2.24-2.91,3.31-4.46c2.13-3.11,4.18-6.41,6.18-9.85
							l0.09-0.15l-0.12-0.13c-3.56-3.85-7.21-7.9-11.17-11.84c-0.72-0.73-1.68-1.25-2.66-1.52c-0.98-0.28-1.98-0.4-3-0.39l0.23,0.14
							c-0.41-0.89-0.99-1.69-1.72-2.34c-0.75-0.62-1.59-1.09-2.47-1.43c-1.78-0.66-3.64-0.88-5.48-0.81l0.25,0.28
							c0.18-0.95-0.01-1.93-0.45-2.75c-0.45-0.82-1.06-1.5-1.8-2.06l-0.06,0.41c1.46-0.46,2.89-0.91,4.3-1.35l0.11-0.03l0.04-0.11
							c1.49-4.41,2.49-8.81,2.96-13.09c0.42-4.28,0.38-8.42-0.22-12.25c-0.55-3.85-1.58-7.38-2.84-10.53
							c-1.28-3.14-2.8-5.9-4.35-8.28c-3.11-4.77-6.35-7.99-8.64-10.05c-1.16-1.02-2.1-1.76-2.75-2.24
							c-0.33-0.24-0.58-0.41-0.75-0.52c-0.17-0.11-0.27-0.16-0.27-0.16c0,0.01,0.08,0.07,0.24,0.19c0.18,0.14,0.42,0.32,0.73,0.55
							c0.63,0.5,1.55,1.25,2.7,2.29c2.25,2.1,5.45,5.33,8.51,10.1c1.53,2.38,3.02,5.12,4.27,8.25c1.23,3.13,2.24,6.64,2.77,10.46
							c0.57,3.81,0.6,7.91,0.18,12.15c-0.48,4.24-1.48,8.61-2.97,12.99l0.15-0.14c-1.41,0.44-2.84,0.89-4.3,1.34l-0.43,0.13
							l0.36,0.28c1.31,0.99,2.41,2.64,2.05,4.34l-0.06,0.29l0.31-0.01c1.75-0.07,3.59,0.15,5.28,0.79c0.84,0.33,1.64,0.77,2.33,1.35
							c0.68,0.6,1.21,1.34,1.59,2.16l0.07,0.14l0.16,0c1.87,0,3.95,0.38,5.31,1.78c3.93,3.91,7.6,7.97,11.15,11.81l-0.03-0.27
							c-1.99,3.43-4.04,6.73-6.15,9.83c-1.06,1.55-2.14,3.04-3.27,4.43c-0.57,0.7-1.16,1.36-1.78,1.97
							c-0.62,0.58-1.32,1.2-2.05,1.32l0.08,0.01c-0.41-0.14-0.82-0.27-1.18-0.39l0.06,0.03c-3.06-2.3-5.99-4.51-8.77-6.6l-0.06-0.05
							l-0.08,0.01c-5.95,0.77-11.46,1.15-16.3,0.93c-2.42-0.13-4.67-0.43-6.62-1.18c-1.96-0.72-3.61-1.72-5.02-2.71
							c-2.81-2.02-4.66-4.04-5.91-5.39c-0.61-0.68-1.08-1.2-1.41-1.57C27.82,169.26,27.64,169.08,27.64,169.08z"/>
					</g>
				</g>
			</g>
			<g>
				<g>
					<g>
						<path class="st5" d="M97.56,88.01c-0.01,0.01,0.07,0.18,0.24,0.5c0.19,0.35,0.45,0.82,0.77,1.4c0.71,1.25,1.71,3.01,2.95,5.19
							c2.57,4.45,6.16,10.66,10.31,17.84l-0.02-0.05c0.99,3.37,1.9,7.06,2.72,10.91c2.29,10.8,3.49,20.74,4.17,27.93
							c0.34,3.6,0.51,6.52,0.63,8.54c0.05,0.98,0.09,1.75,0.12,2.33c0.03,0.53,0.06,0.81,0.07,0.81c0.02,0,0.02-0.28,0.02-0.81
							c-0.01-0.57-0.02-1.35-0.03-2.33c-0.07-2.02-0.18-4.95-0.48-8.56c-0.59-7.22-1.74-17.18-4.03-28
							c-0.82-3.86-1.74-7.57-2.75-10.95l-0.01-0.03l-0.01-0.02c-4.21-7.14-7.85-13.32-10.46-17.75c-1.29-2.16-2.33-3.89-3.07-5.13
							c-0.35-0.57-0.63-1.02-0.84-1.36C97.67,88.16,97.57,88,97.56,88.01z"/>
					</g>
				</g>
			</g>
			<g>
				<g>
					<g>
						<path class="st5" d="M115.85,121.13c-0.05,0.02,0.23,0.98,0.9,2.44c0.67,1.46,1.77,3.41,3.28,5.36
							c1.52,1.94,3.14,3.48,4.4,4.48c1.26,1.01,2.12,1.51,2.15,1.47c0.04-0.06-0.74-0.66-1.93-1.72c-1.19-1.06-2.75-2.61-4.24-4.52
							c-1.49-1.91-2.62-3.8-3.35-5.21C116.32,122.01,115.93,121.1,115.85,121.13z"/>
					</g>
				</g>
			</g>
			<g>
				<g>
					<g>
						<path class="st5" d="M126.71,128.89c0.06-0.01-0.2-0.45-0.87-0.35c-0.31,0.04-0.72,0.31-0.81,0.77
							c-0.09,0.43,0.08,0.98,0.57,1.25c0.5,0.25,1.04,0.07,1.35-0.24c0.33-0.33,0.35-0.8,0.24-1.09c-0.24-0.62-0.72-0.67-0.71-0.61
							c-0.04,0.06,0.3,0.23,0.39,0.7c0.04,0.23,0,0.5-0.22,0.68c-0.2,0.19-0.57,0.27-0.83,0.13c-0.26-0.13-0.4-0.48-0.36-0.75
							c0.03-0.27,0.24-0.45,0.46-0.53C126.37,128.71,126.67,128.94,126.71,128.89z"/>
					</g>
				</g>
			</g>
			<g>
				<g>
					<path class="st12" d="M80.24,185.7l-2.74-2.19c0,0,7.78-10.07,8.97-13.84C86.48,169.67,84.06,179.4,80.24,185.7z"/>
				</g>
			</g>
			<g>
				<g>
					<g>
						<path class="st5" d="M74.57,196.8c0.03,0.01,0.25-0.35,0.63-1.02c0.41-0.76,0.94-1.71,1.56-2.86c1.3-2.42,3.08-5.77,4.87-9.57
							c1.79-3.8,3.18-7.35,4.01-9.97c0.42-1.31,0.73-2.38,0.91-3.13c0.18-0.75,0.27-1.16,0.24-1.17c-0.03-0.01-0.18,0.39-0.42,1.12
							c-0.23,0.73-0.59,1.78-1.05,3.07c-0.92,2.58-2.34,6.09-4.13,9.88c-1.79,3.78-3.52,7.16-4.74,9.62
							c-0.61,1.23-1.1,2.23-1.43,2.92C74.71,196.4,74.54,196.79,74.57,196.8z"/>
					</g>
				</g>
			</g>
			<g>
				<g>
					<path class="st5" d="M99.19,115.44c0.01,0,0.05,0.08,0.12,0.25c0.08,0.19,0.18,0.44,0.31,0.74c0.28,0.69,0.66,1.65,1.15,2.87
						c0.25,0.63,0.52,1.32,0.82,2.08c0.28,0.77,0.56,1.61,0.88,2.51c0.61,1.81,1.37,3.84,2.03,6.15c0.35,1.15,0.71,2.35,1.09,3.61
						c0.37,1.26,0.69,2.58,1.05,3.95c0.76,2.72,1.37,5.67,2.06,8.77c1.25,6.22,2.34,13.13,3,20.43c0.62,7.31,0.75,14.3,0.61,20.64
						c-0.14,3.17-0.23,6.19-0.5,9c-0.12,1.41-0.2,2.77-0.35,4.07c-0.15,1.3-0.3,2.55-0.44,3.74c-0.25,2.39-0.64,4.53-0.93,6.41
						c-0.15,0.94-0.28,1.82-0.43,2.62c-0.16,0.8-0.31,1.53-0.44,2.19c-0.27,1.28-0.48,2.3-0.63,3.03c-0.07,0.32-0.13,0.58-0.18,0.78
						c-0.04,0.18-0.07,0.27-0.08,0.26c-0.01,0,0-0.09,0.03-0.27c0.03-0.21,0.07-0.47,0.12-0.79c0.13-0.73,0.31-1.75,0.53-3.04
						c0.12-0.66,0.25-1.4,0.4-2.19c0.12-0.81,0.25-1.69,0.39-2.62c0.26-1.89,0.63-4.02,0.85-6.41c0.13-1.19,0.27-2.44,0.41-3.74
						c0.14-1.3,0.21-2.66,0.32-4.06c0.25-2.81,0.33-5.82,0.45-8.98c0.12-6.33-0.03-13.3-0.65-20.58
						c-0.67-7.28-1.74-14.16-2.96-20.38c-0.67-3.09-1.27-6.04-2.01-8.76c-0.36-1.36-0.66-2.69-1.02-3.94
						c-0.37-1.25-0.72-2.46-1.06-3.61c-0.64-2.31-1.37-4.35-1.96-6.16c-0.3-0.9-0.58-1.74-0.84-2.52c-0.28-0.76-0.54-1.46-0.77-2.09
						c-0.45-1.23-0.8-2.2-1.05-2.9c-0.11-0.31-0.19-0.56-0.26-0.76C99.21,115.53,99.18,115.44,99.19,115.44z"/>
				</g>
			</g>
			<g>
				<g>
					<path class="st5" d="M110.14,211.84c-0.03,0.14-18.08-4.15-40.3-9.58c-22.23-5.43-40.21-9.94-40.18-10.08
						c0.03-0.14,18.08,4.15,40.3,9.58C92.19,207.18,110.18,211.7,110.14,211.84z"/>
				</g>
			</g>
			<g class="st7">
				<g>
					<path d="M69.9,184.89c-1.23-0.79-6.09-5.17-6.09-5.17s-9.65,0.8-17.36,0.5c-5.25-0.2-10.25-2.88-14.05-6.5l-0.59,1.02
						c0.02,4.27,3.19,8.1,7.1,9.82c3.91,1.72,8.4,1.64,12.59,0.82c2.84-0.56,5.85-1.43,8.53-0.33c2.18,0.9,3.66,2.94,5.56,4.34
						c1.9,1.4,5.45,0.88,6.88-1C73.87,186.56,71.7,186.05,69.9,184.89z"/>
				</g>
			</g>
			<g class="st7">
				<g>
					<path d="M58.97,146.34c-6.09-2.91-13.81-1.99-19.05,2.26c-0.64,0.52-1.26,1.1-1.59,1.85c-0.33,0.75-0.32,1.71,0.22,2.33
						c0.56,0.64,1.53,0.76,2.35,0.54c0.82-0.22,1.52-0.73,2.23-1.2c4.8-3.24,10.36-5.34,16.09-6.1"/>
				</g>
			</g>
		</g>
	</g>
</g>
</svg>
