<?xml version="1.0" encoding="utf-8"?>
<!-- Generator: Adobe Illustrator 26.3.1, SVG Export Plug-In . SVG Version: 6.00 Build 0)  -->
<svg version="1.1" xmlns="http://www.w3.org/2000/svg" xmlns:xlink="http://www.w3.org/1999/xlink" x="0px" y="0px"
	 viewBox="0 0 224.13 415.61" style="enable-background:new 0 0 224.13 415.61;" xml:space="preserve">
<style type="text/css">
	.st0{fill:#F5F5F5;}
	.st1{fill:#EBEBEB;}
	.st2{fill:#E0E0E0;}
	.st3{display:none;}
	.st4{display:inline;}
	.st5{fill:#263238;}
	.st6{fill:#455A64;}
	.st7{opacity:0.3;}
	.st8{fill:#FF725E;}
	.st9{fill:#FFFFFF;}
	.st10{fill:#FAFAFA;stroke:#000000;stroke-width:0.25;stroke-miterlimit:10;}
	.st11{display:inline;fill:#263238;}
	.st12{fill:#FFBE9D;}
	.st13{fill:#EB996E;}
</style>
<g id="Background_Complete">
</g>
<g id="Background_Simple" class="st3">
	<g class="st4">
		<path class="st0" d="M17.18-58.63l2.43-4.01c20.52-33.81,57.61-54.19,96.72-51.72c5.03,0.32,10.03,1,14.97,2.06
			c35.56,7.61,66.5,34.5,79.32,68.94c7.54,20.25,9.65,43.57,23.96,59.65c18.63,20.92,50.25,21.58,78.06,20.71
			c27.8-0.87,59.45-0.13,77.99,20.88c11.61,13.15,15.3,31.86,14.36,49.48c-2.48,46.64-34.98,88.35-76.31,109.07
			c-41.33,20.73-90,22.59-135.23,13.47c-63.37-12.77-123.63-47.85-159.86-102.04C-2.64,73.67-11.8-0.15,17.18-58.63z"/>
	</g>
</g>
<g id="Floor" class="st3">
	<g class="st4">
		<g>
			<path class="st5" d="M480.22,382.06c0,0.14-101.79,0.26-227.33,0.26c-125.58,0-227.35-0.12-227.35-0.26s101.77-0.26,227.35-0.26
				C378.42,381.8,480.22,381.92,480.22,382.06z"/>
		</g>
	</g>
</g>
<g id="Bags" class="st3">
</g>
<g id="Speech_Bubble">
</g>
<g id="Receipt">
	<g>
		<g>
			<g>
				<polygon class="st10" points="208.11,13.56 192.09,0 176.08,13.56 160.07,0 144.06,13.56 128.06,0 112.05,13.56 96.04,0 
					80.03,13.56 64.03,0 48.02,13.56 32.01,0 16.01,13.56 0,0 0,14.45 0,21.77 0,393.85 0,395.47 0,415.61 16.02,402.05 
					32.04,415.61 48.05,402.05 64.06,415.61 80.07,402.05 96.07,415.61 112.08,402.05 128.09,415.61 144.1,402.05 160.11,415.61 
					176.11,402.05 192.12,415.61 208.12,402.05 224.13,415.61 224.13,401.17 224.13,395.47 224.13,393.85 224.13,21.77 
					224.13,14.45 224.13,0 				"/>
			</g>
		</g>
		<g class="st3">
			<g class="st4">
				<g>
					<path class="st5" d="M51.98,96.87c0,0.14-0.56,0.26-1.25,0.26c-0.69,0-1.25-0.12-1.25-0.26s0.56-0.26,1.25-0.26
						C51.42,96.61,51.98,96.73,51.98,96.87z"/>
				</g>
			</g>
			<g class="st4">
				<g>
					<path class="st5" d="M62.02,96.87c0,0.14-1.12,0.26-2.51,0.26c-1.39,0-2.51-0.12-2.51-0.26s1.12-0.26,2.51-0.26
						C60.9,96.61,62.02,96.73,62.02,96.87z"/>
				</g>
			</g>
			<g class="st4">
				<g>
					<path class="st5" d="M72.06,96.87c0,0.14-1.12,0.26-2.51,0.26c-1.39,0-2.51-0.12-2.51-0.26s1.12-0.26,2.51-0.26
						C70.94,96.61,72.06,96.73,72.06,96.87z"/>
				</g>
			</g>
			<g class="st4">
				<g>
					<path class="st5" d="M82.1,96.87c0,0.14-1.12,0.26-2.51,0.26c-1.39,0-2.51-0.12-2.51-0.26s1.12-0.26,2.51-0.26
						C80.98,96.61,82.1,96.73,82.1,96.87z"/>
				</g>
			</g>
			<g class="st4">
				<g>
					<path class="st5" d="M92.14,96.87c0,0.14-1.12,0.26-2.51,0.26c-1.39,0-2.51-0.12-2.51-0.26s1.12-0.26,2.51-0.26
						C91.02,96.61,92.14,96.73,92.14,96.87z"/>
				</g>
			</g>
			<g class="st4">
				<g>
					<path class="st5" d="M102.18,96.87c0,0.14-1.12,0.26-2.51,0.26c-1.39,0-2.51-0.12-2.51-0.26s1.12-0.26,2.51-0.26
						C101.06,96.61,102.18,96.73,102.18,96.87z"/>
				</g>
			</g>
			<g class="st4">
				<g>
					<path class="st5" d="M112.22,96.87c0,0.14-1.12,0.26-2.51,0.26c-1.39,0-2.51-0.12-2.51-0.26s1.12-0.26,2.51-0.26
						C111.1,96.61,112.22,96.73,112.22,96.87z"/>
				</g>
			</g>
			<g class="st4">
				<g>
					<path class="st5" d="M122.26,96.87c0,0.14-1.12,0.26-2.51,0.26c-1.39,0-2.51-0.12-2.51-0.26s1.12-0.26,2.51-0.26
						C121.14,96.61,122.26,96.73,122.26,96.87z"/>
				</g>
			</g>
			<g class="st4">
				<g>
					<path class="st5" d="M132.3,96.87c0,0.14-1.12,0.26-2.51,0.26c-1.39,0-2.51-0.12-2.51-0.26s1.12-0.26,2.51-0.26
						C131.18,96.61,132.3,96.73,132.3,96.87z"/>
				</g>
			</g>
			<g class="st4">
				<g>
					<path class="st5" d="M142.34,96.87c0,0.14-1.12,0.26-2.51,0.26c-1.39,0-2.51-0.12-2.51-0.26s1.12-0.26,2.51-0.26
						C141.22,96.61,142.34,96.73,142.34,96.87z"/>
				</g>
			</g>
			<g class="st4">
				<g>
					<path class="st5" d="M152.38,96.87c0,0.14-1.12,0.26-2.51,0.26c-1.39,0-2.51-0.12-2.51-0.26s1.12-0.26,2.51-0.26
						C151.26,96.61,152.38,96.73,152.38,96.87z"/>
				</g>
			</g>
			<g class="st4">
				<g>
					<path class="st5" d="M162.42,96.87c0,0.14-1.12,0.26-2.51,0.26c-1.39,0-2.51-0.12-2.51-0.26s1.12-0.26,2.51-0.26
						C161.3,96.61,162.42,96.73,162.42,96.87z"/>
				</g>
			</g>
			<g class="st4">
				<g>
					<path class="st5" d="M172.46,96.87c0,0.14-1.12,0.26-2.51,0.26c-1.39,0-2.51-0.12-2.51-0.26s1.12-0.26,2.51-0.26
						C171.34,96.61,172.46,96.73,172.46,96.87z"/>
				</g>
			</g>
			<g class="st4">
				<g>
					<path class="st5" d="M182.5,96.87c0,0.14-1.12,0.26-2.51,0.26c-1.39,0-2.51-0.12-2.51-0.26s1.12-0.26,2.51-0.26
						C181.38,96.61,182.5,96.73,182.5,96.87z"/>
				</g>
			</g>
			<g class="st4">
				<g>
					<path class="st5" d="M192.54,96.87c0,0.14-1.12,0.26-2.51,0.26c-1.39,0-2.51-0.12-2.51-0.26s1.12-0.26,2.51-0.26
						C191.42,96.61,192.54,96.73,192.54,96.87z"/>
				</g>
			</g>
			<g class="st4">
				<g>
					<path class="st5" d="M202.58,96.87c0,0.14-1.12,0.26-2.51,0.26c-1.39,0-2.51-0.12-2.51-0.26s1.12-0.26,2.51-0.26
						C201.46,96.61,202.58,96.73,202.58,96.87z"/>
				</g>
			</g>
			<g class="st4">
				<g>
					<path class="st5" d="M212.62,96.87c0,0.14-1.12,0.26-2.51,0.26c-1.39,0-2.51-0.12-2.51-0.26s1.12-0.26,2.51-0.26
						C211.5,96.61,212.62,96.73,212.62,96.87z"/>
				</g>
			</g>
			<g class="st4">
				<g>
					<path class="st5" d="M222.66,96.87c0,0.14-1.12,0.26-2.51,0.26c-1.39,0-2.51-0.12-2.51-0.26s1.12-0.26,2.51-0.26
						C221.54,96.61,222.66,96.73,222.66,96.87z"/>
				</g>
			</g>
		</g>
		<g class="st3">
			<path class="st11" d="M66.42,119.76v9.5h-1.76v-8.02h-2.01v-1.48H66.42z"/>
			<path class="st11" d="M73.43,129.26l-1.86-2.51l-1.87,2.51h-1.87l2.82-3.68l-2.7-3.57h1.89l1.78,2.37l1.78-2.37h1.83l-2.71,3.54
				l2.83,3.7H73.43z"/>
		</g>
		<g class="st3">
			<path class="st11" d="M70.41,148.82v1.49h-7v-1.18l3.77-3.58c0.92-0.88,1.08-1.44,1.08-1.97c0-0.87-0.6-1.37-1.76-1.37
				c-0.92,0-1.7,0.31-2.22,0.99l-1.23-0.95c0.73-0.99,2.05-1.57,3.61-1.57c2.06,0,3.39,1.04,3.39,2.73c0,0.92-0.26,1.76-1.57,3
				l-2.54,2.41H70.41z"/>
			<path class="st11" d="M76.48,150.31l-1.86-2.51l-1.87,2.51h-1.87l2.82-3.68l-2.7-3.57h1.89l1.78,2.37l1.78-2.37h1.83l-2.71,3.54
				l2.83,3.7H76.48z"/>
		</g>
		<g class="st3">
			<path class="st11" d="M66.82,161.08v9.5h-1.76v-8.02h-2.01v-1.48H66.82z"/>
			<path class="st11" d="M73.83,170.58l-1.86-2.51l-1.87,2.51h-1.87l2.82-3.68l-2.7-3.57h1.89l1.78,2.37l1.78-2.37h1.83l-2.71,3.54
				l2.83,3.7H73.83z"/>
		</g>
		<g class="st3">
			<path class="st11" d="M66.82,183.72v9.5h-1.76v-8.02h-2.01v-1.48H66.82z"/>
			<path class="st11" d="M73.83,193.22l-1.86-2.51l-1.87,2.51h-1.87l2.82-3.68l-2.7-3.57h1.89l1.78,2.37l1.78-2.37h1.83l-2.71,3.54
				l2.83,3.7H73.83z"/>
		</g>
		<g class="st3">
			<path class="st11" d="M65.52,216.9h-2.93v-1.39h7.51v1.39h-2.93v7.46h-1.64V216.9z"/>
			<path class="st11" d="M70.58,219.93c0-2.62,2.02-4.55,4.77-4.55c2.74,0,4.77,1.92,4.77,4.55c0,2.63-2.02,4.55-4.77,4.55
				C72.61,224.49,70.58,222.55,70.58,219.93z M78.46,219.93c0-1.81-1.33-3.11-3.11-3.11c-1.78,0-3.11,1.3-3.11,3.11
				c0,1.81,1.33,3.11,3.11,3.11C77.13,223.05,78.46,221.74,78.46,219.93z"/>
			<path class="st11" d="M83.53,216.9H80.6v-1.39h7.51v1.39h-2.93v7.46h-1.64V216.9z"/>
			<path class="st11" d="M94.65,222.31h-4.43l-0.87,2.05h-1.7l3.98-8.85h1.62l4,8.85h-1.72L94.65,222.31z M94.11,221.02l-1.67-3.87
				l-1.66,3.87H94.11z"/>
			<path class="st11" d="M98.38,215.51h1.64v7.46h4.63v1.39h-6.27V215.51z"/>
		</g>
		<g class="st3">
			<path class="st11" d="M63.1,237.88c0-2.64,2.02-4.55,4.74-4.55c1.44,0,2.68,0.52,3.5,1.48l-1.06,1c-0.65-0.7-1.44-1.04-2.37-1.04
				c-1.83,0-3.16,1.29-3.16,3.11c0,1.82,1.33,3.11,3.16,3.11c0.92,0,1.72-0.34,2.37-1.05l1.06,1.01c-0.82,0.96-2.06,1.48-3.52,1.48
				C65.12,242.44,63.1,240.53,63.1,237.88z"/>
			<path class="st11" d="M78.48,240.26h-4.43l-0.87,2.05h-1.7l3.98-8.85h1.62l4,8.85h-1.72L78.48,240.26z M77.93,238.97l-1.67-3.87
				l-1.66,3.87H77.93z"/>
			<path class="st11" d="M81.46,241.37l0.57-1.28c0.71,0.57,1.83,0.97,2.92,0.97c1.38,0,1.96-0.49,1.96-1.15
				c0-1.91-5.26-0.66-5.26-3.95c0-1.43,1.14-2.64,3.57-2.64c1.06,0,2.18,0.28,2.95,0.78l-0.52,1.28c-0.8-0.47-1.67-0.7-2.44-0.7
				c-1.37,0-1.92,0.53-1.92,1.2c0,1.88,5.25,0.66,5.25,3.91c0,1.42-1.15,2.63-3.58,2.63C83.57,242.44,82.19,242.01,81.46,241.37z"/>
			<path class="st11" d="M98.03,233.45v8.85h-1.64v-3.79h-4.58v3.79h-1.64v-8.85h1.64v3.66h4.58v-3.66H98.03z"/>
		</g>
		<g class="st3">
			<path class="st11" d="M63.09,255.6c0-2.64,2.02-4.55,4.74-4.55c1.44,0,2.68,0.52,3.5,1.48l-1.06,1c-0.65-0.7-1.44-1.04-2.37-1.04
				c-1.83,0-3.16,1.29-3.16,3.11c0,1.82,1.33,3.11,3.16,3.11c0.92,0,1.72-0.34,2.37-1.05l1.06,1.01c-0.82,0.96-2.06,1.48-3.52,1.48
				C65.12,260.15,63.09,258.24,63.09,255.6z"/>
			<path class="st11" d="M80.79,251.17v8.85h-1.64v-3.79h-4.58v3.79h-1.64v-8.85h1.64v3.66h4.58v-3.66H80.79z"/>
			<path class="st11" d="M88.91,257.98h-4.43l-0.87,2.05h-1.7l3.98-8.85h1.62l4,8.85H89.8L88.91,257.98z M88.37,256.69l-1.67-3.87
				l-1.66,3.87H88.37z"/>
			<path class="st11" d="M100.51,251.17v8.85h-1.35l-4.88-6v6h-1.63v-8.85h1.35l4.88,6v-6H100.51z"/>
			<path class="st11" d="M108.93,255.5h1.56v3.53c-0.92,0.75-2.21,1.13-3.47,1.13c-2.75,0-4.77-1.91-4.77-4.55
				c0-2.64,2.02-4.55,4.79-4.55c1.48,0,2.72,0.49,3.55,1.44l-1.04,1.01c-0.7-0.7-1.49-1.01-2.44-1.01c-1.88,0-3.21,1.28-3.21,3.11
				c0,1.8,1.33,3.11,3.2,3.11c0.63,0,1.25-0.13,1.82-0.46V255.5z"/>
			<path class="st11" d="M119.29,258.65v1.38h-6.64v-8.85h6.46v1.38h-4.82v2.3h4.28v1.35h-4.28v2.44H119.29z"/>
		</g>
		<g class="st3">
			<g class="st4">
				<path class="st5" d="M267.71,292.99c0,0.14-48.86,0.26-109.11,0.26c-60.27,0-109.12-0.12-109.12-0.26
					c0-0.14,48.85-0.26,109.12-0.26C218.86,292.73,267.71,292.85,267.71,292.99z"/>
			</g>
		</g>
		<g class="st3">
			<g class="st4">
				<path class="st5" d="M267.71,327.66c0,0.14-48.24,0.26-107.74,0.26c-59.52,0-107.75-0.12-107.75-0.26s48.23-0.26,107.75-0.26
					C219.47,327.4,267.71,327.51,267.71,327.66z"/>
			</g>
		</g>
		<g class="st3">
			<path class="st11" d="M117.07,307.74h-2.97v-1.75h8.09v1.75h-2.97v7.53h-2.15V307.74z"/>
			<path class="st11" d="M131.85,305.99v9.28h-2.15v-3.81h-4.22v3.81h-2.15v-9.28h2.15v3.66h4.22v-3.66H131.85z"/>
			<path class="st11" d="M140.16,313.29h-4.31l-0.82,1.99h-2.2l4.14-9.28h2.12l4.15,9.28h-2.25L140.16,313.29z M139.48,311.65
				l-1.47-3.55l-1.47,3.55H139.48z"/>
			<path class="st11" d="M152.71,305.99v9.28h-1.76l-4.63-5.64v5.64h-2.12v-9.28h1.78l4.61,5.64v-5.64H152.71z"/>
			<path class="st11" d="M158.29,311.63l-1.25,1.3v2.35h-2.13v-9.28h2.13v4.34l4.11-4.34h2.39l-3.85,4.14l4.07,5.14h-2.51
				L158.29,311.63z"/>
			<path class="st11" d="M172.93,311.99v3.29h-2.15v-3.32l-3.59-5.97h2.28l2.48,4.12l2.48-4.12h2.11L172.93,311.99z"/>
			<path class="st11" d="M176.45,310.63c0-2.76,2.15-4.8,5.08-4.8c2.92,0,5.08,2.03,5.08,4.8c0,2.77-2.16,4.8-5.08,4.8
				C178.6,315.43,176.45,313.39,176.45,310.63z M184.43,310.63c0-1.76-1.25-2.97-2.9-2.97c-1.66,0-2.9,1.21-2.9,2.97
				c0,1.76,1.25,2.97,2.9,2.97C183.19,313.6,184.43,312.4,184.43,310.63z"/>
			<path class="st11" d="M188.14,311.19v-5.2h2.15v5.12c0,1.76,0.77,2.49,2.07,2.49c1.31,0,2.07-0.73,2.07-2.49v-5.12h2.12v5.2
				c0,2.73-1.56,4.24-4.2,4.24C189.71,315.43,188.14,313.92,188.14,311.19z"/>
			<path class="st11" d="M198.22,314.17c0-0.68,0.53-1.18,1.27-1.18c0.74,0,1.27,0.5,1.27,1.18c0,0.66-0.53,1.21-1.27,1.21
				C198.75,315.38,198.22,314.84,198.22,314.17z M198.26,305.99h2.47l-0.41,6.06h-1.64L198.26,305.99z"/>
		</g>
		<g class="st3">
			<g class="st4">
				<rect x="90.89" y="341.3" class="st5" width="2.03" height="41.31"/>
			</g>
			<g class="st4">
				<rect x="94.44" y="341.3" class="st5" width="4.21" height="41.31"/>
			</g>
			<g class="st4">
				<rect x="100.64" y="341.3" class="st5" width="1.13" height="41.31"/>
			</g>
			<g class="st4">
				<rect x="133.71" y="341.3" class="st5" width="1.13" height="41.31"/>
			</g>
			<g class="st4">
				<rect x="108.66" y="341.3" class="st5" width="1.13" height="41.31"/>
			</g>
			<g class="st4">
				<rect x="117.8" y="341.3" class="st5" width="0.56" height="41.31"/>
			</g>
			<g class="st4">
				<rect x="123.04" y="341.3" class="st5" width="0.56" height="41.31"/>
			</g>
			<g class="st4">
				<rect x="151.42" y="341.3" class="st5" width="0.56" height="41.31"/>
			</g>
			<g class="st4">
				<rect x="149.28" y="341.3" class="st5" width="0.56" height="41.31"/>
			</g>
			<g class="st4">
				<rect x="137.44" y="341.3" class="st5" width="0.56" height="41.31"/>
			</g>
			<g class="st4">
				<rect x="103.58" y="341.3" class="st5" width="1.88" height="41.31"/>
			</g>
			<g class="st4">
				<rect x="120.14" y="341.3" class="st5" width="1.88" height="41.31"/>
			</g>
			<g class="st4">
				<rect x="160.08" y="341.3" class="st5" width="1.88" height="41.31"/>
			</g>
			<g class="st4">
				<rect x="125.37" y="341.3" class="st5" width="1.47" height="41.31"/>
			</g>
			<g class="st4">
				<rect x="155.51" y="341.3" class="st5" width="1.47" height="41.31"/>
			</g>
			<g class="st4">
				<rect x="141.45" y="341.3" class="st5" width="1.47" height="41.31"/>
			</g>
			<g class="st4">
				<rect x="128.72" y="341.3" class="st5" width="1.47" height="41.31"/>
			</g>
			<g class="st4">
				<rect x="112.21" y="341.3" class="st5" width="3.66" height="41.31"/>
			</g>
			<g class="st4">
				<rect x="164.13" y="341.3" class="st5" width="3.66" height="41.31"/>
			</g>
			<g class="st4">
				
					<rect x="222.23" y="341.3" transform="matrix(-1 -1.224647e-16 1.224647e-16 -1 446.4813 723.9076)" class="st5" width="2.03" height="41.31"/>
			</g>
			<g class="st4">
				
					<rect x="216.49" y="341.3" transform="matrix(-1 -1.224647e-16 1.224647e-16 -1 437.1845 723.9076)" class="st5" width="4.21" height="41.31"/>
			</g>
			<g class="st4">
				
					<rect x="213.37" y="341.3" transform="matrix(-1 -1.224647e-16 1.224647e-16 -1 427.867 723.9076)" class="st5" width="1.13" height="41.31"/>
			</g>
			<g class="st4">
				
					<rect x="180.3" y="341.3" transform="matrix(-1 -1.224647e-16 1.224647e-16 -1 361.728 723.9076)" class="st5" width="1.13" height="41.31"/>
			</g>
			<g class="st4">
				
					<rect x="205.35" y="341.3" transform="matrix(-1 -1.224647e-16 1.224647e-16 -1 411.8375 723.9076)" class="st5" width="1.13" height="41.31"/>
			</g>
			<g class="st4">
				
					<rect x="196.77" y="341.3" transform="matrix(-1 -1.224647e-16 1.224647e-16 -1 394.112 723.9076)" class="st5" width="0.56" height="41.31"/>
			</g>
			<g class="st4">
				
					<rect x="191.53" y="341.3" transform="matrix(-1 -1.224647e-16 1.224647e-16 -1 383.6338 723.9076)" class="st5" width="0.56" height="41.31"/>
			</g>
			<g class="st4">
				
					<rect x="177.14" y="341.3" transform="matrix(-1 -1.224647e-16 1.224647e-16 -1 354.8421 723.9076)" class="st5" width="0.56" height="41.31"/>
			</g>
			<g class="st4">
				
					<rect x="209.68" y="341.3" transform="matrix(-1 -1.224647e-16 1.224647e-16 -1 421.2459 723.9076)" class="st5" width="1.88" height="41.31"/>
			</g>
			<g class="st4">
				
					<rect x="193.12" y="341.3" transform="matrix(-1 -1.224647e-16 1.224647e-16 -1 388.1199 723.9076)" class="st5" width="1.88" height="41.31"/>
			</g>
			<g class="st4">
				
					<rect x="188.3" y="341.3" transform="matrix(-1 -1.224647e-16 1.224647e-16 -1 378.0751 723.9076)" class="st5" width="1.47" height="41.31"/>
			</g>
			<g class="st4">
				
					<rect x="172.22" y="341.3" transform="matrix(-1 -1.224647e-16 1.224647e-16 -1 345.9175 723.9076)" class="st5" width="1.47" height="41.31"/>
			</g>
			<g class="st4">
				
					<rect x="184.95" y="341.3" transform="matrix(-1 -1.224647e-16 1.224647e-16 -1 371.3677 723.9076)" class="st5" width="1.47" height="41.31"/>
			</g>
			<g class="st4">
				
					<rect x="199.26" y="341.3" transform="matrix(-1 -1.224647e-16 1.224647e-16 -1 402.1918 723.9076)" class="st5" width="3.66" height="41.31"/>
			</g>
		</g>
		<g class="st3">
			<path class="st11" d="M200.96,129.36v1.52h-1.11v-1.51c-1.33-0.08-2.62-0.52-3.32-1.13l0.61-1.37c0.67,0.54,1.68,0.94,2.71,1.03
				v-2.71c-1.5-0.37-3.12-0.85-3.12-2.74c0-1.38,1-2.59,3.12-2.79v-1.53h1.11v1.51c1,0.05,2.02,0.35,2.75,0.83l-0.56,1.37
				c-0.72-0.42-1.48-0.65-2.2-0.73v2.74c1.51,0.37,3.15,0.84,3.15,2.73C204.1,127.95,203.09,129.15,200.96,129.36z M199.84,123.56
				v-2.41c-0.96,0.15-1.37,0.64-1.37,1.23C198.47,123.03,199.06,123.33,199.84,123.56z M202.37,126.69c0-0.66-0.6-0.98-1.41-1.21
				v2.4C201.95,127.74,202.37,127.27,202.37,126.69z"/>
			<path class="st11" d="M212.05,127.76v1.49h-7v-1.18l3.77-3.58c0.92-0.88,1.09-1.44,1.09-1.97c0-0.87-0.6-1.37-1.76-1.37
				c-0.92,0-1.7,0.31-2.22,0.99l-1.23-0.95c0.73-0.99,2.05-1.57,3.61-1.57c2.06,0,3.39,1.04,3.39,2.73c0,0.92-0.26,1.76-1.57,3
				l-2.54,2.41H212.05z"/>
			<path class="st11" d="M219.97,126.34c0,1.67-1.21,3.05-3.76,3.05c-1.34,0-2.7-0.41-3.57-1.1l0.75-1.37
				c0.69,0.57,1.72,0.94,2.79,0.94c1.26,0,2.01-0.56,2.01-1.45c0-0.91-0.58-1.48-2.55-1.48h-2.29l0.49-5.17h5.58v1.48h-4.08
				l-0.2,2.2h0.91C218.84,123.44,219.97,124.66,219.97,126.34z"/>
			<path class="st11" d="M223.16,128.22c0,0.3-0.07,0.54-0.31,1.17l-0.69,1.91h-1.1l0.54-2.08c-0.38-0.16-0.64-0.52-0.64-1
				c0-0.68,0.48-1.13,1.1-1.13C222.69,127.1,223.16,127.56,223.16,128.22z"/>
			<path class="st11" d="M231.2,126.34c0,1.67-1.21,3.05-3.76,3.05c-1.34,0-2.7-0.41-3.57-1.1l0.75-1.37
				c0.69,0.57,1.72,0.94,2.79,0.94c1.26,0,2.01-0.56,2.01-1.45c0-0.91-0.58-1.48-2.55-1.48h-2.29l0.49-5.17h5.58v1.48h-4.08
				l-0.2,2.2h0.91C230.07,123.44,231.2,124.66,231.2,126.34z"/>
		</g>
		<g class="st3">
			<path class="st11" d="M200.96,150.78v1.52h-1.11v-1.51c-1.33-0.08-2.62-0.52-3.32-1.13l0.61-1.37c0.67,0.54,1.68,0.94,2.71,1.03
				v-2.71c-1.5-0.37-3.12-0.85-3.12-2.74c0-1.38,1-2.59,3.12-2.79v-1.53h1.11v1.51c1,0.05,2.02,0.35,2.75,0.83l-0.56,1.37
				c-0.72-0.42-1.48-0.65-2.2-0.73v2.74c1.51,0.37,3.15,0.84,3.15,2.73C204.1,149.37,203.09,150.56,200.96,150.78z M199.84,144.97
				v-2.41c-0.96,0.15-1.37,0.64-1.37,1.23C198.47,144.44,199.06,144.74,199.84,144.97z M202.37,148.11c0-0.66-0.6-0.98-1.41-1.21
				v2.4C201.95,149.15,202.37,148.69,202.37,148.11z"/>
			<path class="st11" d="M212.05,149.18v1.49h-7v-1.18l3.77-3.58c0.92-0.88,1.09-1.44,1.09-1.97c0-0.87-0.6-1.37-1.76-1.37
				c-0.92,0-1.7,0.31-2.22,0.99l-1.23-0.95c0.73-0.99,2.05-1.57,3.61-1.57c2.06,0,3.39,1.04,3.39,2.73c0,0.92-0.26,1.76-1.57,3
				l-2.54,2.41H212.05z"/>
			<path class="st11" d="M220.38,145.76c0,3.26-1.9,5.05-4.65,5.05c-0.95,0-1.86-0.2-2.5-0.61l0.65-1.33
				c0.51,0.34,1.14,0.46,1.8,0.46c1.79,0,2.92-1.11,2.92-3.27v-0.01c-0.57,0.66-1.48,0.99-2.54,0.99c-1.87,0-3.27-1.14-3.27-2.92
				c0-1.89,1.53-3.08,3.47-3.08C218.86,141.04,220.38,142.71,220.38,145.76z M218.33,144.02c0-0.89-0.71-1.6-1.97-1.6
				c-1.1,0-1.86,0.62-1.86,1.61c0,0.99,0.75,1.61,1.9,1.61C217.54,145.65,218.33,144.96,218.33,144.02z"/>
			<path class="st11" d="M228.88,145.76c0,3.26-1.9,5.05-4.65,5.05c-0.95,0-1.86-0.2-2.5-0.61l0.65-1.33
				c0.51,0.34,1.14,0.46,1.8,0.46c1.79,0,2.92-1.11,2.92-3.27v-0.01c-0.57,0.66-1.48,0.99-2.54,0.99c-1.87,0-3.27-1.14-3.27-2.92
				c0-1.89,1.53-3.08,3.47-3.08C227.36,141.04,228.88,142.71,228.88,145.76z M226.83,144.02c0-0.89-0.71-1.6-1.97-1.6
				c-1.1,0-1.86,0.62-1.86,1.61c0,0.99,0.75,1.61,1.9,1.61C226.05,145.65,226.83,144.96,226.83,144.02z"/>
		</g>
		<g class="st3">
			<path class="st11" d="M201.68,171.51v1.52h-1.11v-1.51c-1.33-0.08-2.62-0.52-3.32-1.13l0.61-1.37c0.66,0.54,1.68,0.94,2.71,1.03
				v-2.71c-1.5-0.37-3.12-0.85-3.12-2.74c0-1.38,1-2.59,3.12-2.79v-1.53h1.11v1.51c1,0.05,2.02,0.35,2.75,0.83l-0.56,1.37
				c-0.72-0.42-1.48-0.65-2.2-0.73v2.74c1.51,0.37,3.15,0.84,3.15,2.73C204.83,170.1,203.81,171.3,201.68,171.51z M200.57,165.71
				v-2.41c-0.96,0.15-1.37,0.64-1.37,1.23C199.2,165.18,199.79,165.48,200.57,165.71z M203.1,168.84c0-0.66-0.6-0.98-1.41-1.21v2.4
				C202.67,169.89,203.1,169.43,203.1,168.84z"/>
			<path class="st11" d="M212.58,168.56c0,1.6-1.21,2.98-3.76,2.98c-1.34,0-2.69-0.41-3.57-1.1l0.76-1.37
				c0.68,0.57,1.71,0.94,2.78,0.94c1.26,0,2.01-0.56,2.01-1.44c0-0.85-0.62-1.41-2.06-1.41h-0.87v-1.21l2.16-2.56h-4.31v-1.48h6.47
				v1.18l-2.31,2.74C211.67,166.06,212.58,167.13,212.58,168.56z"/>
			<path class="st11" d="M220.54,169.91v1.49h-7v-1.18l3.77-3.58c0.92-0.88,1.09-1.44,1.09-1.97c0-0.87-0.6-1.37-1.76-1.37
				c-0.92,0-1.7,0.31-2.22,0.99l-1.23-0.95c0.73-0.99,2.05-1.57,3.61-1.57c2.06,0,3.39,1.04,3.39,2.73c0,0.92-0.26,1.76-1.57,3
				l-2.54,2.41H220.54z"/>
			<path class="st11" d="M223.86,170.38c0,0.3-0.07,0.54-0.31,1.17l-0.69,1.91h-1.1l0.54-2.08c-0.38-0.16-0.64-0.52-0.64-1
				c0-0.68,0.48-1.13,1.1-1.13C223.39,169.25,223.86,169.71,223.86,170.38z"/>
		</g>
		<g class="st3">
			<path class="st11" d="M201.68,189.23v1.52h-1.11v-1.51c-1.33-0.08-2.62-0.52-3.32-1.13l0.61-1.37c0.66,0.54,1.68,0.94,2.71,1.03
				v-2.71c-1.5-0.37-3.12-0.85-3.12-2.74c0-1.38,1-2.59,3.12-2.79V178h1.11v1.51c1,0.05,2.02,0.35,2.75,0.83l-0.56,1.37
				c-0.72-0.42-1.48-0.65-2.2-0.73v2.74c1.51,0.37,3.15,0.84,3.15,2.73C204.83,187.82,203.81,189.01,201.68,189.23z M200.57,183.43
				v-2.41c-0.96,0.15-1.37,0.64-1.37,1.23C199.2,182.9,199.79,183.2,200.57,183.43z M203.1,186.56c0-0.66-0.6-0.98-1.41-1.21v2.4
				C202.67,187.6,203.1,187.14,203.1,186.56z"/>
			<path class="st11" d="M213.48,186.18c0,1.89-1.53,3.08-3.47,3.08c-2.59,0-4.11-1.67-4.11-4.72c0-3.26,1.9-5.05,4.65-5.05
				c0.95,0,1.86,0.2,2.5,0.61l-0.65,1.33c-0.52-0.34-1.14-0.46-1.8-0.46c-1.79,0-2.92,1.11-2.92,3.27v0.01
				c0.57-0.67,1.48-0.99,2.54-0.99C212.09,183.26,213.48,184.4,213.48,186.18z M211.78,186.26c0-0.99-0.75-1.61-1.9-1.61
				c-1.14,0-1.93,0.69-1.93,1.63c0,0.9,0.71,1.6,1.97,1.6C211.02,187.88,211.78,187.25,211.78,186.26z"/>
			<path class="st11" d="M216.71,188.09c0,0.3-0.07,0.54-0.31,1.17l-0.69,1.91h-1.1l0.54-2.08c-0.38-0.16-0.64-0.52-0.64-1
				c0-0.68,0.48-1.13,1.1-1.13C216.25,186.97,216.71,187.43,216.71,188.09z"/>
			<path class="st11" d="M224.75,186.21c0,1.67-1.21,3.05-3.76,3.05c-1.34,0-2.7-0.41-3.57-1.1l0.75-1.37
				c0.69,0.57,1.72,0.94,2.79,0.94c1.26,0,2.01-0.56,2.01-1.45c0-0.91-0.58-1.48-2.55-1.48h-2.29l0.49-5.17h5.58v1.48h-4.08
				l-0.2,2.2h0.91C223.63,183.3,224.75,184.52,224.75,186.21z"/>
		</g>
		<g class="st3">
			<path class="st11" d="M200.96,224.47v1.52h-1.11v-1.51c-1.33-0.08-2.62-0.52-3.32-1.13l0.61-1.37c0.67,0.54,1.68,0.94,2.71,1.03
				v-2.71c-1.5-0.37-3.12-0.85-3.12-2.74c0-1.38,1-2.59,3.12-2.79v-1.53h1.11v1.51c1,0.05,2.02,0.35,2.75,0.83l-0.56,1.37
				c-0.72-0.42-1.48-0.65-2.2-0.73v2.74c1.51,0.37,3.15,0.84,3.15,2.73C204.1,223.06,203.09,224.25,200.96,224.47z M199.84,218.66
				v-2.42c-0.96,0.15-1.37,0.64-1.37,1.23C198.47,218.13,199.06,218.43,199.84,218.66z M202.37,221.8c0-0.66-0.6-0.98-1.41-1.21v2.4
				C201.95,222.84,202.37,222.38,202.37,221.8z"/>
			<path class="st11" d="M211.85,221.51c0,1.6-1.21,2.98-3.76,2.98c-1.34,0-2.69-0.41-3.57-1.1l0.76-1.37
				c0.68,0.57,1.71,0.94,2.78,0.94c1.26,0,2.01-0.56,2.01-1.44c0-0.85-0.62-1.41-2.06-1.41h-0.87v-1.21l2.16-2.56h-4.31v-1.48h6.47
				v1.18l-2.31,2.74C210.94,219.02,211.85,220.09,211.85,221.51z"/>
			<path class="st11" d="M220.58,221.42c0,1.89-1.53,3.08-3.47,3.08c-2.59,0-4.11-1.67-4.11-4.72c0-3.26,1.9-5.05,4.65-5.05
				c0.95,0,1.86,0.2,2.5,0.61l-0.65,1.33c-0.52-0.34-1.14-0.46-1.8-0.46c-1.79,0-2.92,1.11-2.92,3.27v0.01
				c0.57-0.66,1.48-0.99,2.54-0.99C219.18,218.5,220.58,219.64,220.58,221.42z M218.87,221.5c0-0.99-0.75-1.61-1.9-1.61
				c-1.14,0-1.93,0.69-1.93,1.63c0,0.9,0.71,1.6,1.97,1.6C218.11,223.11,218.87,222.49,218.87,221.5z"/>
			<path class="st11" d="M228.24,221.51c0,1.6-1.21,2.98-3.76,2.98c-1.34,0-2.69-0.41-3.57-1.1l0.76-1.37
				c0.68,0.57,1.71,0.94,2.78,0.94c1.26,0,2.01-0.56,2.01-1.44c0-0.85-0.62-1.41-2.06-1.41h-0.87v-1.21l2.16-2.56h-4.31v-1.48h6.47
				v1.18l-2.31,2.74C227.33,219.02,228.24,220.09,228.24,221.51z"/>
		</g>
		<g class="st3">
			<path class="st11" d="M200.96,242.42v1.52h-1.11v-1.51c-1.33-0.08-2.62-0.52-3.32-1.13l0.61-1.37c0.67,0.54,1.68,0.94,2.71,1.03
				v-2.71c-1.5-0.37-3.12-0.85-3.12-2.74c0-1.38,1-2.59,3.12-2.79v-1.53h1.11v1.51c1,0.05,2.02,0.35,2.75,0.83l-0.56,1.37
				c-0.72-0.42-1.48-0.65-2.2-0.73v2.74c1.51,0.37,3.15,0.84,3.15,2.73C204.1,241.01,203.09,242.2,200.96,242.42z M199.84,236.61
				v-2.41c-0.96,0.15-1.37,0.64-1.37,1.23C198.47,236.08,199.06,236.38,199.84,236.61z M202.37,239.75c0-0.67-0.6-0.98-1.41-1.21
				v2.4C201.95,240.79,202.37,240.33,202.37,239.75z"/>
			<path class="st11" d="M213.77,240.15h-1.68v2.16h-1.71v-2.16h-5.21v-1.22l4.68-6.12h1.88l-4.41,5.85h3.11v-1.91h1.65v1.91h1.68
				V240.15z"/>
			<path class="st11" d="M214.52,237.56c0-3.12,1.71-4.88,3.96-4.88c2.27,0,3.97,1.76,3.97,4.88s-1.71,4.88-3.97,4.88
				C216.23,242.45,214.52,240.68,214.52,237.56z M220.68,237.56c0-2.29-0.9-3.35-2.2-3.35c-1.29,0-2.18,1.06-2.18,3.35
				c0,2.29,0.9,3.35,2.18,3.35C219.78,240.91,220.68,239.85,220.68,237.56z"/>
			<path class="st11" d="M223.64,237.56c0-3.12,1.71-4.88,3.96-4.88c2.27,0,3.97,1.76,3.97,4.88s-1.71,4.88-3.97,4.88
				C225.35,242.45,223.64,240.68,223.64,237.56z M229.8,237.56c0-2.29-0.9-3.35-2.2-3.35c-1.29,0-2.18,1.06-2.18,3.35
				c0,2.29,0.9,3.35,2.18,3.35C228.91,240.91,229.8,239.85,229.8,237.56z"/>
		</g>
		<g class="st3">
			<path class="st11" d="M200.96,260.14v1.52h-1.11v-1.51c-1.33-0.08-2.62-0.52-3.32-1.13l0.61-1.37c0.67,0.54,1.68,0.94,2.71,1.03
				v-2.71c-1.5-0.37-3.12-0.85-3.12-2.74c0-1.38,1-2.59,3.12-2.79v-1.53h1.11v1.51c1,0.05,2.02,0.35,2.75,0.83l-0.56,1.37
				c-0.72-0.42-1.48-0.65-2.2-0.73v2.74c1.51,0.37,3.15,0.84,3.15,2.73C204.1,258.73,203.09,259.92,200.96,260.14z M199.84,254.33
				v-2.42c-0.96,0.15-1.37,0.64-1.37,1.23C198.47,253.8,199.06,254.1,199.84,254.33z M202.37,257.46c0-0.67-0.6-0.98-1.41-1.21v2.4
				C201.95,258.51,202.37,258.05,202.37,257.46z"/>
			<path class="st11" d="M211.85,257.18c0,1.6-1.21,2.98-3.76,2.98c-1.34,0-2.69-0.41-3.57-1.1l0.76-1.37
				c0.68,0.57,1.71,0.94,2.78,0.94c1.26,0,2.01-0.56,2.01-1.44c0-0.85-0.62-1.41-2.06-1.41h-0.87v-1.21l2.16-2.56h-4.31v-1.48h6.47
				v1.18l-2.31,2.74C210.94,254.68,211.85,255.75,211.85,257.18z"/>
			<path class="st11" d="M220.58,257.08c0,1.89-1.53,3.08-3.47,3.08c-2.59,0-4.11-1.67-4.11-4.72c0-3.26,1.9-5.05,4.65-5.05
				c0.95,0,1.86,0.2,2.5,0.61l-0.65,1.33c-0.52-0.34-1.14-0.46-1.8-0.46c-1.79,0-2.92,1.11-2.92,3.27v0.01
				c0.57-0.66,1.48-0.99,2.54-0.99C219.18,254.17,220.58,255.31,220.58,257.08z M218.87,257.17c0-0.99-0.75-1.61-1.9-1.61
				c-1.14,0-1.93,0.69-1.93,1.63c0,0.9,0.71,1.6,1.97,1.6C218.11,258.78,218.87,258.16,218.87,257.17z"/>
			<path class="st11" d="M223.81,259c0,0.3-0.07,0.54-0.31,1.17l-0.69,1.91h-1.1l0.54-2.08c-0.38-0.16-0.64-0.52-0.64-1
				c0-0.68,0.48-1.13,1.1-1.13C223.35,257.87,223.81,258.33,223.81,259z"/>
		</g>
		<g class="st3">
			<g class="st4">
				<path class="st5" d="M131.98,126.81c0,0.14-11.11,0.26-24.81,0.26c-13.71,0-24.82-0.12-24.82-0.26c0-0.14,11.11-0.26,24.82-0.26
					C120.86,126.55,131.98,126.67,131.98,126.81z"/>
			</g>
		</g>
		<g class="st3">
			<g class="st4">
				<path class="st5" d="M163.18,147.62c0,0.14-17.76,0.26-39.67,0.26c-21.92,0-39.68-0.12-39.68-0.26c0-0.14,17.76-0.26,39.68-0.26
					C145.42,147.36,163.18,147.47,163.18,147.62z"/>
			</g>
		</g>
		<g class="st3">
			<g class="st4">
				<path class="st5" d="M134.65,168.42c0,0.14-11.38,0.26-25.41,0.26c-14.04,0-25.41-0.12-25.41-0.26s11.37-0.26,25.41-0.26
					C123.27,168.16,134.65,168.28,134.65,168.42z"/>
			</g>
		</g>
		<g class="st3">
			<g class="st4">
				<path class="st5" d="M129.3,190.41c0,0.14-8.65,0.26-19.32,0.26c-10.67,0-19.32-0.12-19.32-0.26s8.65-0.26,19.32-0.26
					C120.65,190.15,129.3,190.27,129.3,190.41z"/>
			</g>
		</g>
	</g>
</g>
<g id="Character">
</g>
</svg>
